<svg width="422" height="513" viewBox="0 0 422 513" fill="none" xmlns="http://www.w3.org/2000/svg">
<path d="M158.621 430.956H259.293L339.701 350.548C359.785 330.464 389.408 331.68 411 353.272L281.308 493.434C276.198 498.544 269.5 501.1 262.802 501.1L11 501.103" stroke="black" stroke-width="22" stroke-miterlimit="22.9256" stroke-linecap="round" stroke-linejoin="round"/>
<path d="M223.535 430.956C237.931 430.956 249.708 419.178 249.708 404.783C249.708 390.388 237.93 378.61 223.535 378.61H158.622C125.366 358.656 80.24 353.862 43.98 396.407H11" stroke="black" stroke-width="22" stroke-miterlimit="22.9256" stroke-linecap="round" stroke-linejoin="round"/>
<path fill-rule="evenodd" clip-rule="evenodd" d="M363.397 195.435C445.436 53.3389 294.572 -41.0912 211 42.4808C127.429 -41.0912 -23.4352 53.3389 58.6038 195.435C96.3608 260.832 172.512 320.79 211 331.103C249.489 320.79 325.64 260.832 363.397 195.435Z" stroke="black" stroke-width="22" stroke-miterlimit="22.9256" stroke-linecap="round" stroke-linejoin="round"/>
<path d="M188.152 169.763C185.112 171.518 181.663 172.443 178.152 172.443C174.641 172.443 171.192 171.519 168.152 169.763" stroke="black" stroke-width="22" stroke-miterlimit="22.9256" stroke-linecap="round" stroke-linejoin="round"/>
<path d="M252.652 169.763C249.612 171.518 246.163 172.443 242.652 172.443C239.141 172.443 235.692 171.519 232.652 169.763" stroke="black" stroke-width="22" stroke-miterlimit="22.9256" stroke-linecap="round" stroke-linejoin="round"/>
<path d="M221 212.154C217.96 213.909 214.511 214.834 211 214.834C207.489 214.834 204.04 213.91 201 212.154" stroke="black" stroke-width="22" stroke-miterlimit="22.9256" stroke-linecap="round" stroke-linejoin="round"/>
<path fill-rule="evenodd" clip-rule="evenodd" d="M211 83.603C257.948 83.603 286.085 113.474 292.009 147.803C306.853 147.803 319 158.395 319 173.603C319 188.811 306.853 199.403 292.009 199.403C281.085 233.732 248.949 258.603 211 258.603C173.051 258.603 140.915 233.732 129.992 199.403C115.148 199.403 103 188.811 103 173.603C103 158.395 115.147 147.803 129.992 147.803C135.916 113.473 164.052 83.603 211 83.603Z" stroke="#030303" stroke-width="22" stroke-miterlimit="22.9256" stroke-linecap="round" stroke-linejoin="round"/>
<path d="M223.437 125.586C220.014 127.562 216.132 128.602 212.179 128.602C199.744 128.602 189.663 118.522 189.663 106.087C189.663 94.4132 198.586 84.6752 210.216 83.6572" stroke="black" stroke-width="22" stroke-miterlimit="22.9256" stroke-linecap="round" stroke-linejoin="round"/>
</svg>
