<svg width="512" height="513" viewBox="0 0 512 513" fill="none" xmlns="http://www.w3.org/2000/svg">
<g clip-path="url(#clip0_71_119)">
<path d="M205.35 0.636719H229.65C339.871 0.636929 430.031 88.1338 434.351 197.307L434.36 197.563L434.575 197.704L488.18 232.977H488.17L489.565 233.895C496.628 238.541 502.359 244.947 506.193 252.481C510.028 260.016 511.835 268.419 511.436 276.863C511.036 285.308 508.444 293.503 503.915 300.642C499.386 307.78 493.075 313.616 485.605 317.575L462.086 330.035L461.82 330.176V416.347L461.808 417.267C461.685 421.86 460.645 426.386 458.746 430.577C456.721 435.048 453.765 439.036 450.076 442.273C446.387 445.511 442.05 447.923 437.354 449.351C432.659 450.778 427.711 451.187 422.845 450.551L324.345 437.641C323.086 437.476 321.809 437.752 320.73 438.422C319.652 439.091 318.838 440.113 318.427 441.314L297.717 501.835C296.737 504.695 294.889 507.177 292.43 508.935C289.97 510.692 287.023 511.637 284 511.637H76L75.5771 511.631C73.4643 511.57 71.3885 511.047 69.4961 510.098C67.4776 509.085 65.7231 507.616 64.373 505.806C63.0231 503.996 62.1145 501.895 61.7197 499.672C61.3249 497.449 61.4553 495.163 62.0996 492.999L83.6094 420.659V420.658C84.2932 418.335 84.4266 415.884 83.998 413.501C83.5695 411.118 82.5908 408.867 81.1406 406.928L81.1396 406.926L57.0693 374.926C20.4672 326.007 0.627751 266.583 0.5 205.486C0.500215 92.5328 92.3961 0.636934 205.35 0.636719ZM205.35 29.6367C108.384 29.6369 29.5002 108.52 29.5 205.486V205.487C29.595 260.326 47.3949 313.669 80.25 357.576V357.577L104.319 389.575V389.576C108.486 395.142 111.296 401.604 112.525 408.447C113.755 415.29 113.369 422.326 111.4 428.994L95.6309 481.994L95.4395 482.637H273.638L273.753 482.299L290.963 431.939C293.558 424.413 298.668 418.012 305.432 413.813C312.195 409.616 320.199 407.877 328.095 408.892V408.893L426.585 421.812C427.365 421.915 428.158 421.848 428.91 421.618C429.662 421.388 430.356 420.999 430.945 420.478C431.534 419.956 432.004 419.315 432.324 418.597C432.604 417.968 432.764 417.293 432.795 416.607L432.8 416.312V321.417C432.801 318.779 433.522 316.191 434.885 313.933C436.247 311.674 438.2 309.83 440.533 308.599H440.534L471.3 292.308V292.375L472.033 291.989C475.062 290.393 477.622 288.034 479.46 285.145C481.298 282.256 482.349 278.937 482.511 275.517C482.672 272.096 481.939 268.693 480.382 265.644C478.825 262.594 476.498 260.003 473.633 258.128L412.035 217.599C410.028 216.279 408.379 214.481 407.238 212.367C406.098 210.253 405.501 207.888 405.5 205.486L405.485 203.218C404.266 107.293 325.859 29.6369 229.65 29.6367H205.35Z" fill="black" stroke="black"/>
<path d="M214 89.1367C189.277 89.1367 165.11 96.4678 144.554 110.203C123.998 123.938 107.976 143.461 98.5151 166.301C89.0542 189.142 86.5787 214.275 91.4019 238.523C96.225 262.771 108.13 285.043 125.612 302.525C143.093 320.007 165.366 331.912 189.614 336.735C213.861 341.558 238.995 339.083 261.835 329.622C284.676 320.161 304.199 304.139 317.934 283.583C331.669 263.027 339 238.859 339 214.137C338.963 180.996 325.781 149.223 302.347 125.789C278.913 102.355 247.141 89.1738 214 89.1367ZM214 309.137C195.211 309.137 176.844 303.565 161.221 293.126C145.598 282.688 133.422 267.851 126.232 250.492C119.041 233.133 117.16 214.031 120.825 195.603C124.491 177.175 133.539 160.248 146.825 146.962C160.111 133.676 177.038 124.628 195.466 120.962C213.895 117.297 232.996 119.178 250.355 126.368C267.714 133.558 282.551 145.735 292.99 161.358C303.428 176.98 309 195.347 309 214.137C308.971 239.323 298.953 263.47 281.143 281.28C263.333 299.089 239.187 309.108 214 309.137Z" fill="black"/>
<path d="M274 167.977C271.039 165.328 267.147 163.963 263.18 164.181C259.213 164.398 255.494 166.181 252.84 169.137L201.13 226.707L175.13 197.787C172.427 195.03 168.764 193.421 164.904 193.297C161.045 193.172 157.286 194.541 154.41 197.118C151.534 199.695 149.763 203.281 149.465 207.131C149.167 210.981 150.365 214.798 152.81 217.787L190 259.137C191.407 260.703 193.128 261.956 195.05 262.813C196.973 263.671 199.055 264.114 201.16 264.114C203.265 264.114 205.347 263.671 207.27 262.813C209.193 261.956 210.913 260.703 212.32 259.137L275.19 189.137C277.835 186.171 279.195 182.278 278.972 178.311C278.749 174.344 276.961 170.627 274 167.977Z" fill="black"/>
</g>
<defs>
<clipPath id="clip0_71_119">
<rect width="512" height="512" fill="white" transform="translate(0 0.136719)"/>
</clipPath>
</defs>
</svg>
