<svg width="512" height="513" viewBox="0 0 512 513" fill="none" xmlns="http://www.w3.org/2000/svg">
<path d="M108.469 250.105C105.137 246.772 99.7382 246.772 96.4056 250.105L62.2806 284.23C58.9481 287.562 58.9481 292.961 62.2806 296.294L96.4056 330.419C98.0719 332.085 100.255 332.918 102.438 332.918C104.62 332.918 106.803 332.085 108.469 330.419C111.802 327.086 111.802 321.687 108.469 318.355L80.3762 290.262L108.469 262.169C111.802 258.836 111.802 253.437 108.469 250.105Z" fill="black"/>
<path d="M176.719 250.105C173.387 246.772 167.988 246.772 164.656 250.105C161.323 253.437 161.323 258.836 164.656 262.169L192.749 290.262L164.656 318.355C161.323 321.687 161.323 327.086 164.656 330.419C166.322 332.085 168.505 332.918 170.688 332.918C172.87 332.918 175.053 332.085 176.719 330.419L210.844 296.294C214.177 292.961 214.177 287.562 210.844 284.23L176.719 250.105Z" fill="black"/>
<path d="M148.91 265.568C144.694 263.46 139.57 265.164 137.463 269.384L120.4 303.509C118.292 307.724 120 312.848 124.216 314.956C125.441 315.568 126.74 315.856 128.023 315.856C131.156 315.856 134.163 314.131 135.663 311.14L152.726 277.015C154.833 272.799 153.125 267.676 148.91 265.568Z" fill="black"/>
<path d="M244.969 36.8236C241.637 33.4911 236.238 33.4911 232.906 36.8236L198.781 70.9486C195.448 74.2811 195.448 79.6798 198.781 83.0123L232.906 117.137C234.572 118.804 236.755 119.637 238.938 119.637C241.12 119.637 243.303 118.804 244.969 117.137C248.302 113.805 248.302 108.406 244.969 105.074L216.876 76.9805L244.969 48.8873C248.302 45.5548 248.302 40.1561 244.969 36.8236Z" fill="black"/>
<path d="M301.156 117.137C302.822 118.804 305.005 119.637 307.188 119.637C309.37 119.637 311.553 118.804 313.219 117.137L347.344 83.0123C350.677 79.6798 350.677 74.2811 347.344 70.9486L313.219 36.8236C309.887 33.4911 304.488 33.4911 301.156 36.8236C297.823 40.1561 297.823 45.5548 301.156 48.8873L329.249 76.9805L301.156 105.074C297.823 108.406 297.823 113.805 301.156 117.137Z" fill="black"/>
<path d="M264.523 102.574C267.656 102.574 270.663 100.849 272.163 97.8585L289.226 63.7335C291.333 59.5179 289.625 54.3941 285.41 52.2863C281.194 50.1785 276.079 51.8864 273.963 56.102L256.9 90.227C254.792 94.4427 256.5 99.5664 260.716 101.674C261.941 102.287 263.24 102.574 264.523 102.574Z" fill="black"/>
<path d="M260.721 362.591C272.386 342.182 279.153 318.625 279.153 293.473C279.153 216.438 216.551 153.762 139.612 153.762C62.6639 153.762 0.0625 216.438 0.0625 293.473C0.0625 370.513 62.6639 433.189 139.612 433.189C164.927 433.189 188.621 426.298 209.112 414.448L296.382 501.468C303.23 508.317 312.303 512.074 321.967 512.074H322.325C332.156 511.978 341.321 508.017 348.169 500.898C354.751 493.995 358.375 484.906 358.375 475.304C358.375 465.436 354.576 456.2 347.678 449.302L260.721 362.591ZM17.125 293.473C17.125 225.844 72.0699 170.824 139.612 170.824C207.145 170.824 262.09 225.844 262.09 293.473C262.09 361.103 207.145 416.127 139.612 416.127C72.0699 416.127 17.125 361.103 17.125 293.473ZM335.847 489.096C332.231 492.862 327.366 494.962 322.159 495.012C322.101 495.012 322.034 495.012 321.967 495.012C316.86 495.012 312.07 493.025 308.437 489.396L223.589 404.79C234.012 396.887 243.268 387.579 251.121 377.111L335.622 461.374C339.288 465.044 341.312 469.993 341.312 475.304C341.312 480.503 339.363 485.41 335.847 489.096Z" fill="black"/>
<path d="M486.344 0.199219H179.219C165.106 0.199219 153.625 11.6797 153.625 25.793V128.168C153.625 132.879 157.441 136.699 162.156 136.699C166.872 136.699 170.688 132.879 170.688 128.168V25.793C170.688 21.09 174.512 17.2617 179.219 17.2617H486.344C491.051 17.2617 494.875 21.09 494.875 25.793V401.168C494.875 405.871 491.051 409.699 486.344 409.699H349.844C345.128 409.699 341.312 413.519 341.312 418.23C341.312 422.942 345.128 426.762 349.844 426.762H486.344C500.457 426.762 511.938 415.281 511.938 401.168V25.793C511.938 11.6797 500.457 0.199219 486.344 0.199219Z" fill="black"/>
<path d="M366.906 145.23V162.293C366.906 167.004 370.722 170.824 375.438 170.824H443.688C448.403 170.824 452.219 167.004 452.219 162.293V145.23C452.219 121.711 433.082 102.574 409.562 102.574C386.043 102.574 366.906 121.711 366.906 145.23ZM383.969 145.23C383.969 131.117 395.449 119.637 409.562 119.637C423.676 119.637 435.156 131.117 435.156 145.23V153.762H383.969V145.23Z" fill="black"/>
<path d="M435.156 68.4492C435.156 54.336 423.676 42.8555 409.562 42.8555C395.449 42.8555 383.969 54.336 383.969 68.4492C383.969 82.5624 395.449 94.043 409.562 94.043C423.676 94.043 435.156 82.5624 435.156 68.4492ZM401.031 68.4492C401.031 63.7462 404.855 59.918 409.562 59.918C414.27 59.918 418.094 63.7462 418.094 68.4492C418.094 73.1522 414.27 76.9805 409.562 76.9805C404.855 76.9805 401.031 73.1522 401.031 68.4492Z" fill="black"/>
<path d="M383.969 187.887C379.253 187.887 375.438 191.707 375.438 196.418C375.438 201.129 379.253 204.949 383.969 204.949H435.156C439.872 204.949 443.688 201.129 443.688 196.418C443.688 191.707 439.872 187.887 435.156 187.887H383.969Z" fill="black"/>
<path d="M349.844 230.543C349.844 235.254 353.659 239.074 358.375 239.074H435.156C439.872 239.074 443.688 235.254 443.688 230.543C443.688 225.832 439.872 222.012 435.156 222.012H358.375C353.659 222.012 349.844 225.832 349.844 230.543Z" fill="black"/>
<path d="M435.156 256.137H341.312C336.597 256.137 332.781 259.957 332.781 264.668C332.781 269.379 336.597 273.199 341.312 273.199H435.156C439.872 273.199 443.688 269.379 443.688 264.668C443.688 259.957 439.872 256.137 435.156 256.137Z" fill="black"/>
</svg>
