<svg width="557" height="493" viewBox="0 0 557 493" fill="none" xmlns="http://www.w3.org/2000/svg">
<path d="M94.1168 281.706C81.563 282.818 69.7191 286.39 59.0508 291.916" stroke="black" stroke-width="15" stroke-miterlimit="10" stroke-linecap="round" stroke-linejoin="round"/>
<path d="M263.676 297.866C251.388 289.445 237.013 283.845 221.487 282" stroke="black" stroke-width="15" stroke-miterlimit="10" stroke-linecap="round" stroke-linejoin="round"/>
<path d="M27.3469 318.472C15.1046 334.432 7.8125 354.389 7.8125 376.058V445.947C7.8125 465.388 18.4657 482.331 34.2452 491.284V583.172" stroke="black" stroke-width="15" stroke-miterlimit="10" stroke-linecap="round" stroke-linejoin="round"/>
<path d="M192.877 302.717V323.685C192.877 343.85 176.53 360.197 156.366 360.197C136.201 360.197 119.854 343.85 119.854 323.685V302.339" stroke="black" stroke-width="15" stroke-miterlimit="10" stroke-linecap="round" stroke-linejoin="round"/>
<path d="M179.609 244.093C179.609 256.93 169.201 267.338 156.363 267.338C143.526 267.338 133.118 256.93 133.118 244.093" stroke="black" stroke-width="15" stroke-miterlimit="10" stroke-linecap="round" stroke-linejoin="round"/>
<path d="M156.366 310.248C110.994 310.248 74.2139 273.468 74.2139 228.096V190.677C74.2139 148.75 108.203 114.761 150.13 114.761H162.603C204.53 114.761 238.519 148.75 238.519 190.677V228.096C238.518 273.466 201.737 310.248 156.366 310.248Z" stroke="black" stroke-width="15" stroke-miterlimit="10" stroke-linecap="round" stroke-linejoin="round"/>
<path d="M334.825 439.609V454.734C334.825 470.645 321.927 483.542 306.018 483.542C290.108 483.542 277.211 470.644 277.211 454.734V439.609" stroke="black" stroke-width="15" stroke-miterlimit="10" stroke-linecap="round" stroke-linejoin="round"/>
<path d="M188.808 499.109V583.174" stroke="black" stroke-width="15" stroke-miterlimit="10" stroke-linecap="round" stroke-linejoin="round"/>
<path d="M255.907 421.704C241.171 423.2 227.701 428.977 216.76 437.771" stroke="black" stroke-width="15" stroke-miterlimit="10" stroke-linecap="round" stroke-linejoin="round"/>
<path d="M412.368 457.242C400.891 438.395 381.308 425.025 358.461 421.978" stroke="black" stroke-width="15" stroke-miterlimit="10" stroke-linecap="round" stroke-linejoin="round"/>
<path d="M324.355 391.937C324.355 402.065 316.144 410.277 306.015 410.277C295.887 410.277 287.675 402.065 287.675 391.937" stroke="black" stroke-width="15" stroke-miterlimit="10" stroke-linecap="round" stroke-linejoin="round"/>
<path d="M306.016 444.132C270.218 444.132 241.199 415.112 241.199 379.315V349.792C241.199 316.713 268.016 289.896 301.096 289.896H310.936C344.016 289.896 370.833 316.713 370.833 349.792V379.315C370.833 415.112 341.814 444.132 306.016 444.132Z" stroke="black" stroke-width="15" stroke-miterlimit="10" stroke-linecap="round" stroke-linejoin="round"/>
<path d="M250.367 491.584V524.861C250.367 529.358 254.013 533.003 258.509 533.003H312.262V583.174" stroke="black" stroke-width="15" stroke-miterlimit="10" stroke-linecap="round" stroke-linejoin="round"/>
<path d="M77.4004 375.007V419.71C77.4004 425.752 82.2973 430.648 88.3385 430.648H170.12V498.046" stroke="black" stroke-width="15" stroke-miterlimit="10" stroke-linecap="round" stroke-linejoin="round"/>
<path d="M170.12 430.648V498.046H195.062C213.674 498.046 228.76 482.959 228.76 464.348C228.76 445.736 213.674 430.65 195.062 430.65H170.12V430.648Z" stroke="black" stroke-width="15" stroke-miterlimit="10" stroke-linecap="round" stroke-linejoin="round"/>
<path d="M514.074 583.174H364.913C357.212 583.174 351.517 576.003 353.26 568.503L376.412 468.872C377.671 463.453 382.5 459.617 388.064 459.617H537.226C544.927 459.617 550.622 466.787 548.879 474.288L525.727 573.918C524.468 579.338 519.638 583.174 514.074 583.174Z" stroke="black" stroke-width="15" stroke-miterlimit="10" stroke-linecap="round" stroke-linejoin="round"/>
<path d="M170.12 498.045H59.9048C31.1337 498.045 7.80957 474.721 7.80957 445.95V436.526" stroke="black" stroke-width="15" stroke-miterlimit="10" stroke-linecap="round" stroke-linejoin="round"/>
<path d="M422.505 254.538H519.761C525.952 254.538 530.97 259.556 530.97 265.747V387.669C530.97 393.86 525.952 398.879 519.761 398.879H485.792L448.242 422.203C443.015 425.449 436.255 421.691 436.255 415.537V398.877H422.505C416.314 398.877 411.296 393.859 411.296 387.668V265.747C411.296 259.556 416.314 254.538 422.505 254.538Z" stroke="black" stroke-width="15" stroke-miterlimit="10" stroke-linecap="round" stroke-linejoin="round"/>
<path d="M495.334 328.163H446.932" stroke="black" stroke-width="15" stroke-miterlimit="10" stroke-linecap="round" stroke-linejoin="round"/>
<path d="M495.334 357.569H446.932" stroke="black" stroke-width="15" stroke-miterlimit="10" stroke-linecap="round" stroke-linejoin="round"/>
<path d="M464.408 298.756H446.932" stroke="black" stroke-width="15" stroke-miterlimit="10" stroke-linecap="round" stroke-linejoin="round"/>
<path d="M356.465 83.7637H292.082C285.892 83.7637 280.873 88.7822 280.873 94.9729V216.896C280.873 223.086 285.892 228.105 292.082 228.105H305.833V244.764C305.833 250.917 312.592 254.675 317.819 251.429L355.369 228.105H389.338C395.529 228.105 400.548 223.086 400.548 216.896V188.721" stroke="black" stroke-width="15" stroke-miterlimit="10" stroke-linecap="round" stroke-linejoin="round"/>
<path d="M400.548 147.11V117.341" stroke="black" stroke-width="15" stroke-miterlimit="10" stroke-linecap="round" stroke-linejoin="round"/>
<path d="M364.913 157.388H316.509" stroke="black" stroke-width="15" stroke-miterlimit="10" stroke-linecap="round" stroke-linejoin="round"/>
<path d="M364.913 186.795H316.509" stroke="black" stroke-width="15" stroke-miterlimit="10" stroke-linecap="round" stroke-linejoin="round"/>
<path d="M328.61 127.982H316.509" stroke="black" stroke-width="15" stroke-miterlimit="10" stroke-linecap="round" stroke-linejoin="round"/>
<path d="M397.18 113.897L372.891 122.534C366.24 124.899 359.287 119.848 359.482 112.791L360.19 87.0219C360.254 84.7113 359.519 82.4505 358.11 80.6182L342.391 60.1873C338.086 54.592 340.742 46.4185 347.513 44.4229L372.239 37.1343C374.456 36.481 376.38 35.0831 377.686 33.1766L392.259 11.913C396.25 6.08954 404.844 6.08954 408.834 11.913L423.408 33.1778C424.714 35.0842 426.638 36.4822 428.855 37.1354L453.582 44.424C460.353 46.4196 463.008 54.5931 458.703 60.1885L442.984 80.6193C441.575 82.4505 440.84 84.7125 440.904 87.0231L441.613 112.792C441.807 119.849 434.855 124.9 428.203 122.535L403.914 113.898C401.735 113.122 399.358 113.122 397.18 113.897Z" stroke="black" stroke-width="15" stroke-miterlimit="10" stroke-linecap="round" stroke-linejoin="round"/>
</svg>
