<svg width="577" height="576" viewBox="0 0 577 576" fill="none" xmlns="http://www.w3.org/2000/svg">
<path d="M63.6592 324.328C63.6592 326.1 64.1865 327.838 65.1709 329.312L135.659 434.861V459.094H126.659C121.685 459.094 117.659 463.112 117.659 468.078V539.953C117.659 544.919 121.685 548.938 126.659 548.938H270.659C275.634 548.938 279.659 544.919 279.659 539.953V468.078C279.659 463.112 275.634 459.094 270.659 459.094H261.659V387.394C261.659 377.813 257.915 368.794 251.095 362.003C251.095 362.003 207.044 318.011 193.86 304.675C183.454 294.269 166.298 294.252 155.575 304.675C153.314 306.932 151.734 309.6 150.452 312.363L117.659 279.634V216.516C117.659 204.566 112.79 192.984 104.493 184.904C96.2314 176.446 84.6299 171.594 72.6592 171.594C67.6846 171.594 63.6592 175.612 63.6592 180.578V216.516C63.6592 221.482 67.6846 225.5 72.6592 225.5C77.6338 225.5 81.6592 221.482 81.6592 216.516V191.124C85.4209 192.475 88.8838 194.678 91.7666 197.608C96.7764 202.495 99.6592 209.383 99.6592 216.516V283.363C99.6592 285.75 100.608 288.04 102.313 289.724L186.601 373.812C187.444 374.514 188.147 375.234 188.868 375.953L197.517 384.587C199.274 386.341 201.577 387.219 203.88 387.219C206.183 387.219 208.485 386.341 210.243 384.587C213.759 381.077 213.759 375.392 210.243 371.882L201.595 363.249C200.522 362.178 199.433 361.108 198.782 360.599L168.401 330.277C168.286 330.141 168.25 329.969 168.126 329.838C164.821 326.364 164.909 320.766 168.214 317.467C171.905 313.87 177.583 313.835 181.099 317.344C194.247 330.645 238.368 374.707 238.368 374.707C241.778 378.112 243.659 382.621 243.659 387.394V459.094H153.659V432.141C153.659 430.368 153.132 428.631 152.147 427.157L81.6592 321.608V288.391C81.6592 283.425 77.6338 279.406 72.6592 279.406C67.6846 279.406 63.6592 283.425 63.6592 288.391V324.328ZM252.659 477.062H261.659V530.969H135.659V477.062H252.659Z" fill="black"/>
<path d="M234.659 513C239.63 513 243.659 508.978 243.659 504.016C243.659 499.054 239.63 495.031 234.659 495.031C229.689 495.031 225.659 499.054 225.659 504.016C225.659 508.978 229.689 513 234.659 513Z" fill="black"/>
<path d="M512.147 329.312C513.132 327.838 513.659 326.1 513.659 324.328L513.624 180.578C513.624 175.612 509.599 171.594 504.624 171.594C492.618 171.594 481.333 176.261 472.808 184.746C464.335 193.239 459.659 204.504 459.659 216.481V279.52L426.946 312.185C425.628 309.465 423.853 306.956 421.655 304.763C411.46 294.567 393.671 294.567 383.476 304.763L326.206 361.933C319.403 368.724 315.659 377.743 315.659 387.342V459.094H306.659C301.685 459.094 297.659 463.112 297.659 468.078V539.953C297.659 544.919 301.685 548.938 306.659 548.938H450.659C455.634 548.938 459.659 544.919 459.659 539.953V468.078C459.659 463.112 455.634 459.094 450.659 459.094H441.659V434.861L512.147 329.312ZM441.659 530.969H315.659V477.062H441.659V530.969ZM333.659 459.094V387.342C333.659 382.551 335.54 378.041 338.933 374.637L396.202 317.467C399.612 314.063 405.519 314.063 408.929 317.467C410.634 319.169 411.565 321.415 411.565 323.802C411.565 326.136 410.687 328.329 409.087 330.014L367.146 371.882C363.63 375.392 363.63 381.077 367.146 384.587C370.661 388.096 376.356 388.096 379.872 384.587L421.655 342.876L421.919 342.613L474.231 290.382C476.323 288.742 477.659 286.188 477.659 283.328V216.481C477.659 209.4 480.542 202.46 485.552 197.45C488.452 194.555 491.897 192.405 495.659 191.08V321.608L425.171 427.157C424.187 428.631 423.659 430.368 423.659 432.141V459.094H333.659Z" fill="black"/>
<path d="M342.659 513C347.63 513 351.659 508.978 351.659 504.016C351.659 499.054 347.63 495.031 342.659 495.031C337.689 495.031 333.659 499.054 333.659 504.016C333.659 508.978 337.689 513 342.659 513Z" fill="black"/>
<path d="M198.659 243.469H378.659C393.548 243.469 405.659 231.378 405.659 216.516V124.183L419.124 116.503C421.937 114.906 423.659 111.923 423.659 108.703C423.659 105.483 421.937 102.5 419.124 100.903L293.124 29.0282C290.347 27.4489 286.972 27.4489 284.194 29.0282L158.194 100.903C155.382 102.5 153.659 105.483 153.659 108.703C153.659 111.923 155.382 114.906 158.194 116.503L171.659 124.183V216.516C171.659 231.378 183.771 243.469 198.659 243.469ZM387.659 216.516C387.659 221.473 383.616 225.5 378.659 225.5H198.659C193.702 225.5 189.659 221.473 189.659 216.516V134.452L284.194 188.378C285.583 189.168 287.112 189.562 288.659 189.562C290.206 189.562 291.735 189.168 293.124 188.378L342.659 160.121V185.053C342.659 190.019 346.685 194.037 351.659 194.037C356.634 194.037 360.659 190.019 360.659 185.053V149.853L387.659 134.452V216.516ZM288.659 47.1724L396.519 108.703L351.659 134.294L293.124 100.903C288.853 98.4378 283.315 99.9118 280.837 104.246C278.376 108.554 279.87 114.038 284.194 116.503L333.523 144.641L288.659 170.234L180.8 108.703L288.659 47.1724Z" fill="black"/>
<path d="M72.6592 261.438C77.6297 261.438 81.6592 257.415 81.6592 252.453C81.6592 247.491 77.6297 243.469 72.6592 243.469C67.6886 243.469 63.6592 247.491 63.6592 252.453C63.6592 257.415 67.6886 261.438 72.6592 261.438Z" fill="black"/>
</svg>
