<svg width="595" height="595" viewBox="0 0 595 595" fill="none" xmlns="http://www.w3.org/2000/svg">
<path d="M158.115 573.171C159.86 574.916 162.218 575.891 164.677 575.891H164.788C167.294 575.863 169.67 574.823 171.397 573.013L204.651 538.144L320.862 538.534C329.92 538.756 338.654 536.065 346.293 531.313L449.073 467.421C463.199 458.641 467.599 439.976 458.883 425.804C450.567 412.299 433.62 407.482 419.466 414.61L337.271 455.93C336.547 442.018 326.802 430.351 313.075 427.242L196.493 400.828C186.033 398.461 175.221 401.57 167.619 409.172L87.4385 489.352C83.8096 492.981 83.8096 498.847 87.4385 502.476L158.134 573.171H158.115ZM180.724 422.305C183.787 419.232 188.159 417.979 192.372 418.935L308.954 445.35C314.708 446.659 318.737 451.689 318.737 457.592C318.737 461.156 317.289 464.441 314.662 466.854C312.035 469.268 308.601 470.419 305.084 470.103L233.544 463.838C228.467 463.328 223.929 467.161 223.492 472.275C223.047 477.379 226.824 481.89 231.929 482.326L303.469 488.591C310.207 489.176 316.917 487.542 322.588 484.034C322.895 483.913 323.192 483.784 323.489 483.644L427.81 431.205C433.295 428.439 439.866 430.314 443.087 435.54C446.465 441.025 444.757 448.264 439.281 451.661L336.501 515.553C331.823 518.458 326.013 519.906 320.927 519.971L200.725 519.572H200.698C198.164 519.572 195.732 520.612 193.978 522.449L164.529 553.328L107.115 495.914L180.734 422.295L180.724 422.305Z" fill="black"/>
<path d="M330.821 156.768C330.821 168.685 334.765 180.138 341.921 189.002C343.759 191.276 346.441 192.454 349.151 192.454C351.202 192.454 353.263 191.777 354.971 190.394C358.962 187.173 359.583 181.326 356.363 177.345C351.852 171.757 349.374 164.453 349.374 156.768C349.374 140.322 360.688 126.929 374.6 126.929C379.724 126.929 383.882 122.771 383.882 117.648C383.882 112.524 379.724 108.366 374.6 108.366C369.978 108.366 365.607 109.378 361.421 110.854C358.349 105.647 354.46 101.062 349.727 97.4887C345.624 94.3981 339.814 95.2056 336.724 99.2986C333.633 103.382 334.44 109.211 338.534 112.302C341.439 114.501 343.833 117.369 345.717 120.683C336.649 129.555 330.812 142.373 330.812 156.777L330.821 156.768Z" fill="black"/>
<path d="M132.991 254.889C130.504 262.045 129.139 269.749 129.139 277.721C129.139 312.637 154.681 341.038 186.08 341.038C192.605 341.038 198.944 339.692 204.93 337.363C213.812 359.415 233.693 374.84 256.794 374.84C276.73 374.84 294.281 363.387 304.453 346.124C314.625 363.387 332.176 374.84 352.121 374.84C375.223 374.84 395.103 359.415 403.985 337.363C409.981 339.692 416.311 341.038 422.835 341.038C454.234 341.038 479.776 312.628 479.776 277.721C479.776 269.749 478.421 262.045 475.933 254.889C496.51 245.172 510.599 222.424 510.599 196.798C510.599 171.173 496.473 148.257 475.859 138.54C478.356 131.421 479.785 123.708 479.785 115.615C479.785 80.6989 454.243 52.2983 422.845 52.2983C415.958 52.2983 409.285 53.7925 403.02 56.4006C393.692 35.5734 374.396 21.1968 352.094 21.1968C332.167 21.1968 314.625 32.6684 304.462 49.9594C294.29 32.6684 276.758 21.1968 256.822 21.1968C234.519 21.1968 215.223 35.5734 205.895 56.4006C199.621 53.7925 192.957 52.2983 186.071 52.2983C154.672 52.2983 129.13 80.6989 129.13 115.615C129.13 123.708 130.55 131.421 133.056 138.54C112.442 148.248 98.3164 171.07 98.3164 196.798C98.3164 222.526 112.405 245.172 132.982 254.889H132.991ZM352.103 39.7593C373.246 39.7593 390.444 59.8161 390.444 84.4671C390.444 87.2329 390.221 90.0173 389.785 92.7274C388.968 97.7857 392.411 102.547 397.479 103.364C397.98 103.447 398.472 103.484 398.964 103.484C403.438 103.484 407.382 100.236 408.115 95.6788C408.709 92.0034 409.006 88.226 409.006 84.4763C409.006 81.0052 408.691 77.6175 408.199 74.3041C412.765 72.0673 417.731 70.8793 422.854 70.8793C444.015 70.8793 461.232 90.9547 461.232 115.634C461.232 140.312 444.015 160.388 422.854 160.388C415.067 160.388 407.54 157.631 401.089 152.406C397.108 149.176 391.251 149.789 388.04 153.77C384.81 157.752 385.423 163.599 389.404 166.82C394.815 171.21 400.802 174.319 407.085 176.342C405.071 182.867 403.911 189.754 403.911 196.817C403.911 201.94 408.069 206.098 413.192 206.098C418.315 206.098 422.473 201.94 422.473 196.817C422.473 190.496 423.615 184.37 425.768 178.783C442.586 177.827 457.492 168.778 467.367 155.005C481.966 161.464 492.046 178.013 492.046 196.807C492.046 215.602 481.957 231.993 467.367 238.443C463.376 232.902 458.587 227.992 452.953 224.103C448.73 221.189 442.948 222.247 440.043 226.461C437.128 230.675 438.187 236.457 442.4 239.371C454.011 247.399 461.232 262.092 461.232 277.721C461.232 302.4 444.015 322.475 422.854 322.475C417.861 322.475 412.997 321.343 408.514 319.236C408.784 316.749 408.96 314.224 408.96 311.654C408.96 300.887 406.426 290.502 401.813 281.118C404.858 275.874 408.821 271.326 413.554 267.892C417.703 264.876 418.622 259.075 415.605 254.927C412.598 250.787 406.807 249.859 402.639 252.875C398.017 256.235 393.934 260.347 390.388 264.932C386.258 260.755 381.654 257.2 376.615 254.555C372.076 252.179 366.47 253.924 364.076 258.453C361.69 262.992 363.435 268.607 367.974 270.992C374.09 274.204 379.445 279.345 383.399 285.777C387.975 293.388 390.388 302.335 390.388 311.663C390.388 336.267 373.218 356.296 352.112 356.296C331.007 356.296 313.725 336.277 313.725 311.663V275.652C313.725 275.652 313.734 275.605 313.734 275.587C313.734 257.702 323.21 245.228 331.721 245.228C336.845 245.228 341.003 241.07 341.003 235.946C341.003 230.823 336.845 226.665 331.721 226.665C325.094 226.665 319.034 229.097 313.725 233.06V84.532C313.725 84.532 313.734 84.4856 313.734 84.4671C313.734 59.8161 330.932 39.7593 352.075 39.7593H352.103ZM141.567 154.995C151.442 168.769 166.348 177.818 183.166 178.774C185.319 184.352 186.46 190.487 186.46 196.807C186.46 201.931 190.618 206.089 195.742 206.089C200.865 206.089 205.023 201.931 205.023 196.807C205.023 189.744 203.863 182.858 201.849 176.333C208.132 174.31 214.119 171.191 219.53 166.81C223.511 163.58 224.124 157.743 220.894 153.761C217.664 149.77 211.817 149.157 207.844 152.397C201.394 157.622 193.876 160.378 186.089 160.378C164.928 160.378 147.711 140.303 147.711 115.624C147.711 90.9454 164.928 70.87 186.089 70.87C191.203 70.87 196.178 72.058 200.744 74.2948C200.262 77.6175 199.937 80.9959 199.937 84.4671C199.937 88.2352 200.234 92.0034 200.828 95.6695C201.561 100.236 205.506 103.475 209.979 103.475C210.471 103.475 210.963 103.438 211.464 103.354C216.522 102.538 219.975 97.7764 219.158 92.7181C218.722 90.0265 218.509 87.2514 218.509 84.4578C218.509 59.8068 235.707 39.75 256.849 39.75C277.992 39.75 295.19 59.8068 295.19 84.4578V84.5042V233.051C289.891 229.088 283.821 226.656 277.203 226.656C272.08 226.656 267.922 230.814 267.922 235.937C267.922 241.06 272.08 245.218 277.203 245.218C285.714 245.218 295.19 257.683 295.19 275.577V275.624V311.654C295.19 336.258 277.974 356.287 256.812 356.287C235.651 356.287 218.536 336.267 218.536 311.654C218.536 302.335 220.95 293.379 225.47 285.861C229.488 279.345 234.844 274.204 240.951 270.983C245.489 268.598 247.234 262.983 244.849 258.444C242.463 253.915 236.858 252.161 232.31 254.546C227.279 257.191 222.685 260.746 218.536 264.932C214.991 260.337 210.907 256.226 206.276 252.866C202.127 249.85 196.326 250.787 193.31 254.917C190.294 259.066 191.212 264.867 195.361 267.883C200.095 271.317 204.058 275.865 207.102 281.1C202.508 290.446 199.965 300.85 199.965 311.635C199.965 314.206 200.141 316.73 200.41 319.218C195.937 321.334 191.073 322.457 186.071 322.457C164.909 322.457 147.693 302.382 147.693 277.703C147.693 262.073 154.904 247.372 166.515 239.353C170.738 236.438 171.787 230.656 168.872 226.442C165.958 222.219 160.185 221.18 155.962 224.085C150.329 227.983 145.53 232.893 141.539 238.443C126.949 231.983 116.87 215.509 116.87 196.789C116.87 178.068 126.949 161.446 141.548 154.986L141.567 154.995Z" fill="black"/>
<path d="M234.324 126.929C248.236 126.929 259.55 140.312 259.55 156.768C259.55 164.453 257.063 171.757 252.561 177.345C249.341 181.335 249.972 187.183 253.954 190.394C255.671 191.777 257.731 192.454 259.773 192.454C262.483 192.454 265.165 191.276 267.003 189.002C274.159 180.12 278.103 168.676 278.103 156.768C278.103 142.364 272.266 129.546 263.198 120.673C265.082 117.369 267.476 114.492 270.381 112.302C274.465 109.211 275.282 103.392 272.191 99.2985C269.101 95.2055 263.291 94.4073 259.188 97.4887C254.455 101.062 250.575 105.647 247.494 110.854C243.308 109.378 238.937 108.366 234.314 108.366C229.191 108.366 225.033 112.524 225.033 117.648C225.033 122.771 229.191 126.929 234.314 126.929H234.324Z" fill="black"/>
</svg>
