<?xml version="1.0" encoding="UTF-8"?>
<svg version="1.1" xmlns="http://www.w3.org/2000/svg" width="512" height="512">
<path d="M0 0 C2.21114048 1.78446414 4.36305305 3.62760298 6.5 5.5 C7.03625 5.96470703 7.5725 6.42941406 8.125 6.90820312 C25.51088113 22.09995262 39.77735569 39.44751543 51.85449219 59.1184082 C57.84200737 68.86339464 63.45064893 76.45064193 72.5 83.5 C74.3347161 84.99830836 76.16806868 86.49828806 78 88 C79.33417969 89.07507813 79.33417969 89.07507813 80.6953125 90.171875 C104.57358295 109.99283487 104.57358295 109.99283487 105.73828125 121.9453125 C105.966397 130.18149181 104.09139405 136.33525956 99.75 143.3125 C93.71105117 149.18370025 87.04186879 152.13372026 78.625 152.8125 C66.92934106 152.47250991 59.1442444 145.4212121 51.125 137.75 C50.38894531 137.05261719 49.65289062 136.35523438 48.89453125 135.63671875 C47.09258056 133.92837589 45.2945637 132.2160954 43.5 130.5 C43.42158464 136.59318692 43.42538931 142.63938212 43.79296875 148.72265625 C43.84654541 149.63442627 43.90012207 150.54619629 43.95532227 151.4855957 C44.06612567 153.29081434 44.18725273 155.0954372 44.32006836 156.89916992 C44.83142907 165.34659354 44.04345066 172.7895071 38.5 179.5 C32.30929677 185.89706 26.56424558 189.52717366 17.5625 189.875 C9.04953327 189.56211914 1.48691588 186.6821414 -4.5 180.5 C-9.83729757 172.99928326 -10.42449448 166.19404556 -8.984375 157.32421875 C-8.39737099 152.68972743 -8.35411008 148.16541457 -8.375 143.5 C-8.37113281 142.63632812 -8.36726562 141.77265625 -8.36328125 140.8828125 C-8.37072995 135.98156537 -8.67281347 131.33181972 -9.5 126.5 C-12.92892311 129.79176618 -15.80578124 133.1331575 -18.5625 137 C-23.32042624 143.43626295 -28.56965656 149.26368222 -34.10253906 155.03955078 C-35.33581091 156.32841035 -36.55568828 157.63005807 -37.7734375 158.93359375 C-49.49665771 171.15799252 -63.91625902 181.02901854 -78.5 189.5 C-78.07332031 190.19738281 -77.64664063 190.89476562 -77.20703125 191.61328125 C-55.7565864 227.83578502 -28.71506229 288.21793497 -37.98046875 331.7578125 C-40.49756252 338.40516511 -44.29386328 342.49617882 -50.80224609 345.65307617 C-56.92523094 347.57530553 -63.60799871 347.06898786 -69.96875 347.03125 C-71.57483149 347.03394899 -73.18091137 347.03783478 -74.7869873 347.04284668 C-78.14249325 347.04872268 -81.49757139 347.04024068 -84.85302734 347.02148438 C-89.1368287 346.99869549 -93.41962739 347.01182887 -97.70339203 347.03577423 C-101.01673833 347.05028401 -104.32985006 347.04560266 -107.64320374 347.03526306 C-109.22193015 347.03261004 -110.80067842 347.03581496 -112.37937927 347.04518127 C-129.58081311 347.12485947 -129.58081311 347.12485947 -136.00158691 341.08825684 C-140.2753007 336.34048787 -141.67172628 331.72451063 -142.2109375 325.484375 C-142.31889648 324.32421875 -142.42685547 323.1640625 -142.53808594 321.96875 C-142.7048584 320.12796875 -142.7048584 320.12796875 -142.875 318.25 C-143.96497034 307.37803125 -145.32363436 296.96187818 -148.5 286.5 C-148.73170898 285.72817383 -148.96341797 284.95634766 -149.20214844 284.16113281 C-154.03179033 268.46635061 -161.15107996 254.31129462 -169.875 240.4375 C-178.56130464 226.60245834 -181.98961839 210.73190943 -178.8125 194.55859375 C-174.61867969 177.52119875 -165.75798759 162.78991864 -150.5 153.5 C-143.71262195 149.47863808 -136.76172647 146.8381201 -129.25 144.5625 C-94.21912437 133.92911762 -67.86647756 111.47637793 -50.12890625 79.65625 C-48.23911081 75.9944881 -46.75451932 72.42037287 -45.5 68.5 C-61.2336933 66.0220944 -73.38907652 67.93695286 -87.34375 75.44921875 C-92.95895048 78.18561174 -99.05219006 78.3724641 -105.0625 76.8515625 C-112.11442193 74.33609035 -117.13593717 70.73707403 -120.81640625 64.140625 C-124.24356881 56.45040658 -124.69335031 50.14565401 -121.75 42.25 C-116.78981726 30.20384192 -104.4820513 25.09442642 -93.1875 20.25 C-82.25803642 15.70461997 -71.27201358 12.83684388 -59.5 11.5 C-59.2215625 10.4790625 -59.2215625 10.4790625 -58.9375 9.4375 C-54.49910613 0.36773862 -45.48664331 -3.84756403 -36.5 -7.5 C-23.34148747 -10.35265999 -10.77404624 -8.32643224 0 0 Z M-41.5 17.5 C-43.08010494 20.04549542 -44.55805421 22.61669955 -45.97265625 25.2578125 C-47.725523 27.83107468 -48.57244042 28.51250971 -51.5 29.5 C-54.04366133 29.96871962 -56.56801601 30.37585693 -59.125 30.75 C-71.72514301 32.81731743 -83.58952364 36.69088947 -94.9375 42.5625 C-95.55834473 42.87856201 -96.17918945 43.19462402 -96.81884766 43.52026367 C-100.60192307 45.59123998 -102.77393365 47.5217058 -104.5 51.5 C-103.60394232 55.35304802 -102.84846101 56.26769266 -99.5 58.5 C-94.36304176 58.13179145 -89.89741855 55.40279018 -85.37890625 53.11523438 C-76.99887701 49.02889022 -68.93826531 48.14083585 -59.6875 48.1875 C-58.71989746 48.18443848 -57.75229492 48.18137695 -56.75537109 48.17822266 C-51.38264593 48.23145369 -46.77938133 48.70953579 -41.625 50.375 C-37.90398465 51.59358258 -37.90398465 51.59358258 -34.32421875 50.46875 C-32.29254152 48.89862838 -32.29254152 48.89862838 -30.421875 47.140625 C-25.6375219 43.05642114 -19.05228639 41.91118599 -12.89453125 42.1484375 C-5.54681197 43.22722173 1.44997283 45.96901786 6.5 51.5 C11.30533629 59.55253901 14.12723046 67.37147297 11.98193359 76.76953125 C11.28037171 79.0407819 10.50683161 81.2686288 9.6875 83.5 C9.29594727 84.61375 9.29594727 84.61375 8.89648438 85.75 C8.50493164 86.86375 8.50493164 86.86375 8.10546875 88 C7.84580322 88.74161377 7.5861377 89.48322754 7.31860352 90.24731445 C6.76548576 91.76941929 6.17619481 93.27878786 5.55444336 94.77416992 C3.28048037 100.56850446 3.53003082 104.03922171 5.6875 109.8125 C9.69315956 121.21491174 10.81631438 132.12640589 10.6875 144.1875 C10.6865332 145.92483398 10.6865332 145.92483398 10.68554688 147.69726562 C10.65311348 154.04339955 10.33746144 160.20898966 9.5 166.5 C13.62356808 169.7564768 13.62356808 169.7564768 18.6875 170.5 C22.05002867 169.30443425 22.78256812 168.59406869 24.5 165.5 C24.74859494 162.86774215 24.82914995 160.50158838 24.75 157.87890625 C24.73831787 157.13274551 24.72663574 156.38658478 24.71459961 155.61781311 C24.54711845 147.21344827 24.03860508 138.82473778 23.5 130.4375 C23.35539252 128.13761021 23.21235246 125.83764564 23.07202148 123.53749084 C22.94578735 121.47523236 22.81485545 119.41326295 22.68359375 117.35131836 C22.08526932 104.80003123 22.08526932 104.80003123 25.5 100.5 C28.57823863 98.44784091 30.50997515 97.82958794 34.19921875 97.9375 C42.14155023 99.87925846 48.62059399 108.48756803 54.12109375 114.1171875 C56.83895756 116.83951414 59.69415602 119.3389349 62.6171875 121.8359375 C65.1902363 124.11004287 67.57543566 126.54742371 69.95703125 129.01953125 C72.35561909 131.3209611 74.05834591 132.44239294 77.375 132.875 C81.34356926 132.39877169 82.87586666 131.5100353 85.5 128.5 C86.28399416 124.26643151 85.98790793 122.27392292 83.6875 118.625 C80.29355443 115.011165 76.32599504 112.0097762 72.4609375 108.921875 C68.58280231 105.74978553 64.9304164 102.36282205 61.2578125 98.95703125 C58.55597719 96.54987203 55.75229733 94.37953571 52.875 92.1875 C45.53402803 86.23142061 40.9775648 78.54839658 36.10546875 70.6015625 C27.55571824 56.66204656 17.80544898 44.30610223 6.5 32.5 C6.0138623 31.98663086 5.52772461 31.47326172 5.02685547 30.94433594 C-8.00234739 16.85124503 -8.00234739 16.85124503 -25.375 10.1875 C-31.56964718 10.80696472 -37.11840501 13.00309988 -41.5 17.5 Z M-21.5 62.5 C-22.7076114 64.36166821 -22.7076114 64.36166821 -23.515625 66.58203125 C-23.84626953 67.38850098 -24.17691406 68.1949707 -24.51757812 69.02587891 C-24.84177734 69.84233887 -25.16597656 70.65879883 -25.5 71.5 C-26.11477028 72.94355505 -26.73442187 74.38504285 -27.359375 75.82421875 C-27.66601074 76.53553955 -27.97264648 77.24686035 -28.28857422 77.97973633 C-44.25789476 114.65077891 -72.0181004 143.5711557 -109.5 158.5 C-115.04678899 160.4929948 -120.62802241 162.38287808 -126.25317383 164.14282227 C-138.17536977 168.00426599 -147.74831609 173.70649172 -154.5 184.5 C-160.43641364 196.23959107 -161.96590262 206.73690597 -158.52734375 219.4453125 C-156.37732524 225.83814321 -152.81861387 231.41239516 -149.23828125 237.08984375 C-132.49962733 264.0046107 -125.42921437 293.34044808 -122.77246094 324.58178711 C-122.69518639 326.5050274 -122.69518639 326.5050274 -121.5 327.5 C-119.5056827 327.59405142 -117.50800457 327.61743249 -115.51147461 327.61352539 C-113.58959572 327.61341209 -113.58959572 327.61341209 -111.62889099 327.61329651 C-110.22004152 327.60818909 -108.81119244 327.60297309 -107.40234375 327.59765625 C-105.96887766 327.59579202 -104.53541093 327.59436814 -103.10194397 327.59336853 C-99.32240043 327.58954372 -95.5428951 327.57971377 -91.7633667 327.56866455 C-87.90930702 327.55844963 -84.05524118 327.55387074 -80.20117188 327.54882812 C-72.63409713 327.53809146 -65.06705391 327.52101549 -57.5 327.5 C-57.48691316 325.45232855 -57.47765687 323.40463244 -57.4699707 321.35693359 C-57.46439651 320.21662689 -57.45882233 319.07632019 -57.45307922 317.90145874 C-57.5217301 312.92470521 -58.04070301 308.05567351 -58.6875 303.125 C-58.8220459 302.09608643 -58.9565918 301.06717285 -59.09521484 300.00708008 C-64.35954413 261.73406233 -78.05048424 225.75008521 -99.22265625 193.46875 C-101.51941841 189.9287863 -101.83318639 187.74812643 -101.5 183.5 C-99.22763788 177.90649324 -94.7413283 176.02860016 -89.6875 173.3125 C-76.33529939 165.83865052 -65.00769371 157.43514619 -53.97119141 146.85620117 C-52.49287779 145.49343447 -50.96389533 144.22985439 -49.3984375 142.96875 C-46.59848883 140.58388806 -44.40868692 138.18621012 -42.125 135.3125 C-41.3515625 134.34054687 -40.578125 133.36859375 -39.78125 132.3671875 C-39.0284375 131.42101562 -38.275625 130.47484375 -37.5 129.5 C-36.8503125 128.73945313 -36.200625 127.97890625 -35.53125 127.1953125 C-23.49955597 112.94465851 -5.79400043 87.37602327 -5.4375 68.125 C-6.86603848 64.59566964 -8.463682 62.79410693 -11.5 60.5 C-15.49265401 59.92962086 -18.11036433 60.35740601 -21.5 62.5 Z " fill="#000000" transform="translate(320.5,122.5)"/>
<path d="M0 0 C10.60247626 9.14393455 15.39475194 19.90503616 16.52734375 33.72265625 C16.17712861 43.92009699 13.03278902 52.62777304 7.21484375 60.91015625 C6.63734375 61.79703125 6.05984375 62.68390625 5.46484375 63.59765625 C-2.92602914 72.22160895 -12.80716356 76.93244948 -24.77563477 77.38110352 C-38.54834796 77.54055024 -48.26410571 74.06767864 -58.78515625 64.91015625 C-66.46253011 57.11916374 -70.83849696 45.71308226 -71.03515625 34.84765625 C-70.86611696 22.27113312 -66.60247334 11.9273983 -58.16015625 2.66015625 C-42.11801508 -12.52148693 -17.36516652 -13.25606715 0 0 Z M-45.78515625 18.91015625 C-49.91193667 24.27144364 -52.149238 29.04949085 -51.78515625 35.91015625 C-50.66380065 43.42090262 -47.59420382 49.00524059 -41.78515625 53.91015625 C-35.61574141 58.03085975 -29.07138109 59.08005714 -21.78515625 57.91015625 C-14.96399332 55.68885535 -9.62199763 52.02836278 -5.78515625 45.91015625 C-2.7352014 39.65249027 -2.66487405 32.22820598 -4.40234375 25.53125 C-7.36076642 18.84207307 -13.14456394 13.75801888 -19.84765625 10.97265625 C-29.45603591 7.98752859 -39.49677704 11.00476524 -45.78515625 18.91015625 Z " fill="#000000" transform="translate(154.78515625,194.08984375)"/>
<path d="M0 0 C7.26672016 5.7750582 11.58447233 13.50210268 13.69921875 22.4609375 C14.79209837 34.10137621 13.36675719 43.69232563 6.51171875 53.2734375 C-0.11810422 61.19239272 -8.94525556 65.8621027 -19.11328125 67.2734375 C-29.52727027 68.02298954 -39.35736275 65.2365264 -47.52734375 58.671875 C-55.9593182 50.7451874 -60.12140394 41.60406458 -60.61328125 30.0859375 C-60.26485091 18.32128955 -55.44381462 9.22562728 -47.11328125 1.1484375 C-33.57965521 -10.09591846 -14.28215027 -9.55376436 0 0 Z M-37.30078125 18.4609375 C-40.11725737 22.5976368 -41.12859644 26.46757793 -41.30078125 31.4609375 C-39.85576292 37.71870285 -37.01827727 42.5845712 -31.67578125 46.2734375 C-26.56493534 48.0716981 -21.43570234 48.56738024 -16.2421875 46.734375 C-11.43550572 44.19148528 -8.54453904 40.8240773 -6.05078125 36.0859375 C-4.3495654 30.13168203 -5.12136031 25.64297231 -8.0234375 20.32421875 C-10.66425889 16.4720114 -13.83446002 13.94971124 -18.30078125 12.4609375 C-26.17564279 11.33798793 -31.4515313 13.05687359 -37.30078125 18.4609375 Z " fill="#000000" transform="translate(274.30078125,49.5390625)"/>
</svg>
