<svg width="512" height="513" viewBox="0 0 512 513" fill="none" xmlns="http://www.w3.org/2000/svg">
<path d="M499.816 249.202C492.072 242.689 481.914 239.948 471.949 241.683C455.532 244.54 443.617 258.706 443.617 275.369V338.858C443.617 341.258 443.451 343.632 443.158 345.976C442.11 344.584 440.961 343.253 439.707 341.999C432.707 334.998 423.398 331.143 413.498 331.143C403.598 331.143 394.29 334.998 387.289 341.999L344.654 384.634C321.529 385.67 299.934 395.167 283.458 411.642C271.583 423.518 262.338 437.319 256 452.338C249.662 437.318 240.417 423.517 228.542 411.641C212.066 395.167 190.472 385.669 167.346 384.634L124.711 341.999C117.71 334.999 108.402 331.143 98.5022 331.143C88.602 331.143 79.2939 334.998 72.2928 341.999C71.0308 343.261 69.8858 344.596 68.8438 345.985C68.5498 343.638 68.3838 341.262 68.3838 338.858V275.369C68.3838 258.706 56.4687 244.54 40.0525 241.683C30.0863 239.95 19.9272 242.689 12.1841 249.202C4.44105 255.714 0 265.252 0 275.369V332.228C0 376.478 17.2322 418.082 48.5226 449.372L108.27 509.12C110.223 511.072 112.782 512.049 115.341 512.049C117.9 512.049 120.46 511.072 122.412 509.12C126.317 505.215 126.317 498.882 122.412 494.976L62.6647 435.229C35.1524 407.716 20.0002 371.137 20.0002 332.228V275.369C20.0002 271.17 21.8433 267.211 25.0573 264.509C28.2703 261.806 32.4874 260.668 36.6234 261.388C43.4365 262.573 48.3826 268.453 48.3826 275.369V338.858C48.3826 359.267 56.3307 378.455 70.7618 392.886L129.032 451.156C132.937 455.06 139.269 455.06 143.175 451.156C147.08 447.251 147.08 440.919 143.175 437.013L86.435 380.273C79.7809 373.62 79.7809 362.794 86.435 356.14C89.658 352.917 93.9431 351.142 98.5012 351.142C103.059 351.142 107.345 352.917 110.568 356.141L156.038 401.61C157.913 403.485 160.457 404.539 163.109 404.539C182.484 404.539 200.699 412.084 214.398 425.785C234.763 446.149 245.984 473.219 245.999 502.016C245.999 502.035 245.998 502.056 245.998 502.076C245.998 507.599 250.475 512.076 255.998 512.076H255.999C261.522 512.076 265.999 507.599 265.999 502.076V502.049C265.999 502.046 265.999 502.043 265.999 502.04C265.999 502.026 265.999 502.012 265.999 501.998C266.019 473.208 277.239 446.144 297.599 425.784C311.3 412.083 329.516 404.538 348.89 404.538C351.542 404.538 354.086 403.484 355.961 401.609L401.432 356.141C404.655 352.918 408.94 351.143 413.498 351.143C418.056 351.143 422.341 352.918 425.565 356.142C428.788 359.365 430.563 363.65 430.563 368.208C430.563 372.766 428.788 377.051 425.564 380.274L368.825 437.014C364.92 440.92 364.92 447.251 368.825 451.157C372.73 455.063 379.062 455.061 382.967 451.157L441.236 392.887C455.668 378.456 463.616 359.268 463.616 338.859V275.37C463.616 268.454 468.561 262.574 475.376 261.389C479.513 260.668 483.729 261.807 486.942 264.509C490.156 267.212 491.999 271.171 491.999 275.37V332.229C491.999 371.138 476.847 407.717 449.333 435.231L389.586 494.978C385.681 498.884 385.681 505.216 389.586 509.122C391.539 511.075 394.098 512.051 396.657 512.051C399.216 512.051 401.776 511.074 403.728 509.122L463.475 449.374C494.766 418.084 511.998 376.48 511.998 332.23V275.371C512 265.252 507.559 255.714 499.816 249.202Z" fill="black"/>
<path d="M213.886 338.09C225.136 349.34 240.092 355.535 256 355.535C271.909 355.535 286.866 349.34 298.115 338.09L432.951 203.253C466.23 169.975 476.766 120.102 459.794 76.1956C457.803 71.0445 452.015 68.4815 446.861 70.4735C441.71 72.4645 439.147 78.2546 441.138 83.4067C455.259 119.935 446.494 161.427 418.809 189.111L339.442 268.478C335.492 253.801 327.698 240.37 316.589 229.446C309.754 222.724 301.981 217.29 293.583 213.228C311.74 201.068 323.72 180.372 323.72 156.926C323.72 119.584 293.34 89.2037 255.997 89.2027C218.656 89.2037 188.277 119.584 188.277 156.926C188.277 180.372 200.257 201.068 218.413 213.228C210.015 217.291 202.243 222.725 195.407 229.446C184.299 240.37 176.504 253.801 172.553 268.478L93.1914 189.11C54.612 150.531 54.612 87.7597 93.1914 49.1803C131.77 10.6028 194.543 10.6028 233.12 49.1803L248.93 64.9905C252.835 68.8955 259.167 68.8955 263.073 64.9905L278.884 49.1803C306.566 21.497 348.055 12.7309 384.586 26.85C389.737 28.841 395.527 26.279 397.519 21.1269C399.51 15.9759 396.948 10.1858 391.796 8.1938C347.889 -8.7764 298.018 1.76072 264.741 35.0371L256.003 43.7752L247.265 35.0371C224.799 12.5709 194.93 0.198705 163.158 0.198705C131.387 0.198705 101.517 12.5718 79.0523 35.0371C56.586 57.5024 44.2139 87.3727 44.2139 119.144C44.2139 150.915 56.587 180.785 79.0523 203.251L213.886 338.09ZM228.01 118.308C228.559 131.304 239.3 141.708 252.429 141.708C257.952 141.708 262.429 137.231 262.429 131.708C262.429 126.185 257.952 121.708 252.429 121.708C249.977 121.708 247.983 119.714 247.983 117.264C247.983 112.822 251.597 109.207 256.04 109.207C256.061 109.207 256.082 109.204 256.104 109.204C282.371 109.262 303.722 130.645 303.723 156.924C303.723 183.237 282.315 204.645 256.001 204.646C229.688 204.646 208.281 183.238 208.281 156.924C208.28 141.061 216.066 126.99 228.01 118.308ZM256.001 224.646C290.591 224.646 319.447 251.69 322.192 285.73L283.974 323.949C276.502 331.421 266.568 335.535 256.001 335.535C245.434 335.535 235.501 331.42 228.029 323.949L189.811 285.73C192.556 251.689 221.412 224.646 256.001 224.646Z" fill="black"/>
<path d="M256 184.633C262.407 184.633 268.813 182.195 273.69 177.318C277.595 173.413 277.595 167.081 273.69 163.175C269.785 159.27 263.453 159.27 259.547 163.175C258.269 164.454 256.776 164.645 255.999 164.645C255.222 164.645 253.729 164.454 252.451 163.175C248.546 159.27 242.214 159.27 238.308 163.175C234.403 167.08 234.403 173.412 238.308 177.318C243.187 182.194 249.593 184.633 256 184.633Z" fill="black"/>
<path d="M425.882 52.1099C428.512 52.1099 431.092 51.0399 432.952 49.1799C434.812 47.3199 435.882 44.7399 435.882 42.1099C435.882 39.4799 434.812 36.8999 432.952 35.0399C431.092 33.1799 428.512 32.1099 425.882 32.1099C423.252 32.1099 420.672 33.1799 418.812 35.0399C416.952 36.8999 415.882 39.4799 415.882 42.1099C415.882 44.7399 416.952 47.3199 418.812 49.1799C420.672 51.0409 423.253 52.1099 425.882 52.1099Z" fill="black"/>
</svg>
