<svg width="70" height="85" viewBox="0 0 70 85" fill="none" xmlns="http://www.w3.org/2000/svg">
<g clip-path="url(#clip0_169_138)">
<path d="M22 42.6354C22.6211 42.6354 23.125 42.1455 23.125 41.5417V36.4375C23.125 34.6281 21.6111 33.1562 19.75 33.1562C17.8889 33.1562 16.375 34.6281 16.375 36.4375V41.5417C16.375 42.1455 16.8789 42.6354 17.5 42.6354C18.1211 42.6354 18.625 42.1455 18.625 41.5417V39.7187H20.875V41.5417C20.875 42.1455 21.3789 42.6354 22 42.6354ZM18.625 37.5312V36.4375C18.625 35.8344 19.1296 35.3437 19.75 35.3437C20.3704 35.3437 20.875 35.8344 20.875 36.4375V37.5312H18.625Z" fill="black"/>
<path d="M31 42.6354C31.6211 42.6354 32.125 42.1455 32.125 41.5417V36.4375C32.125 34.6281 30.6111 33.1562 28.75 33.1562C26.8889 33.1562 25.375 34.6281 25.375 36.4375V41.5417C25.375 42.1455 25.8789 42.6354 26.5 42.6354C27.1211 42.6354 27.625 42.1455 27.625 41.5417V39.7187H29.875V41.5417C29.875 42.1455 30.3789 42.6354 31 42.6354ZM27.625 37.5312V36.4375C27.625 35.8344 28.1296 35.3437 28.75 35.3437C29.3704 35.3437 29.875 35.8344 29.875 36.4375V37.5312H27.625Z" fill="black"/>
<path d="M40.8277 35.8552C41.3272 36.217 42.0318 36.1144 42.4024 35.6309C42.773 35.1467 42.6705 34.4617 42.1724 34.1006C40.2344 32.7 37.4981 32.8887 35.796 34.5436C33.9136 36.3914 33.9136 39.3978 35.8003 41.2492C37.4795 42.897 40.2684 43.0652 42.1724 41.6885C42.6705 41.3275 42.773 40.6425 42.4024 40.1583C42.0318 39.6755 41.3272 39.5729 40.8277 39.934C39.7847 40.6902 38.3038 40.5919 37.3956 39.7061C36.3775 38.7071 36.3775 37.0821 37.3912 36.0866C38.3053 35.1987 39.7803 35.0969 40.8277 35.8552Z" fill="black"/>
<path d="M52 21.4922H25C22.7251 21.4922 20.875 23.2909 20.875 25.5026C20.875 26.1064 21.3789 26.5964 22 26.5964C22.6211 26.5964 23.125 26.1064 23.125 25.5026C23.125 24.4972 23.9658 23.6797 25 23.6797H52C53.0342 23.6797 53.875 24.4972 53.875 25.5026V52.1172H44.5C43.8789 52.1172 43.375 52.6071 43.375 53.2109V62.3255H25C23.9658 62.3255 23.125 61.5081 23.125 60.5026V47.013H32.5C33.1211 47.013 33.625 46.5231 33.625 45.9193C33.625 45.3154 33.1211 44.8255 32.5 44.8255H16.75C15.7839 44.8255 14.8831 45.1004 14.125 45.5732V32.7943C14.125 31.7888 14.9658 30.9714 16 30.9714H43C44.0342 30.9714 44.875 31.7888 44.875 32.7943V43.0026C44.875 44.0081 44.0342 44.8255 43 44.8255H37C36.3789 44.8255 35.875 45.3154 35.875 45.9193C35.875 46.5231 36.3789 47.013 37 47.013H43C45.2749 47.013 47.125 45.2143 47.125 43.0026V32.7943C47.125 30.5826 45.2749 28.7839 43 28.7839H16C13.7251 28.7839 11.875 30.5826 11.875 32.7943V49.5651C11.875 52.1784 14.062 54.3047 16.75 54.3047H20.875V60.5026C20.875 62.7143 22.7251 64.513 25 64.513H44.5C44.7988 64.513 45.0845 64.3977 45.2954 64.1926L55.7954 53.9842C56.0063 53.7792 56.125 53.5015 56.125 53.2109V25.5026C56.125 23.2909 54.2749 21.4922 52 21.4922ZM16.75 52.1172C15.3027 52.1172 14.125 50.9722 14.125 49.5651C14.125 48.158 15.3027 47.013 16.75 47.013H20.875V52.1172H16.75ZM52.2842 54.3047L45.625 60.7789V54.3047H52.2842Z" fill="black"/>
<path d="M38.5 52.1172H32.5C31.8789 52.1172 31.375 52.6071 31.375 53.2109C31.375 53.8148 31.8789 54.3047 32.5 54.3047H38.5C39.1211 54.3047 39.625 53.8148 39.625 53.2109C39.625 52.6071 39.1211 52.1172 38.5 52.1172Z" fill="black"/>
<path d="M38.5 56.4922H28C27.3789 56.4922 26.875 56.9821 26.875 57.5859C26.875 58.1898 27.3789 58.6797 28 58.6797H38.5C39.1211 58.6797 39.625 58.1898 39.625 57.5859C39.625 56.9821 39.1211 56.4922 38.5 56.4922Z" fill="black"/>
</g>
<defs>
<clipPath id="clip0_169_138">
<rect width="70" height="85" fill="white"/>
</clipPath>
</defs>
</svg>
