<svg width="70" height="85" viewBox="0 0 70 85" fill="none" xmlns="http://www.w3.org/2000/svg">
<path d="M58.1 35.7136H54.8221V35.3522C54.8221 34.4525 54.0766 33.7207 53.1603 33.7207H46.6954C46.2499 33.7207 45.8886 34.0753 45.8886 34.5128C45.8886 34.9504 46.2499 35.305 46.6954 35.305H53.1603C53.1869 35.305 53.2085 35.3261 53.2085 35.3522V45.0106C53.2085 45.4482 53.5697 45.8028 54.0153 45.8028C54.4609 45.8028 54.8221 45.4482 54.8221 45.0106V37.2979H58.1C58.2091 37.2979 58.2978 37.385 58.2978 37.4921V65.1279C58.2978 66.9406 56.7958 68.4153 54.9495 68.4153H15.0506C13.2043 68.4153 11.7022 66.9406 11.7022 65.1279V37.4921C11.7022 37.385 11.791 37.2979 11.9001 37.2979H15.2855V64.3902C15.2855 65.5073 16.2111 66.4161 17.3489 66.4161H52.7586C53.8964 66.4161 54.822 65.5074 54.822 64.3902V48.3892C54.822 47.9517 54.4608 47.5971 54.0152 47.5971C53.5696 47.5971 53.2084 47.9517 53.2084 48.3892V59.7887H40.155C38.4643 59.7887 36.9385 60.4906 35.8606 61.6119V51.3653C35.8606 50.9278 35.4994 50.5732 35.0538 50.5732C34.6082 50.5732 34.247 50.9278 34.247 51.3653V61.612C33.1691 60.4907 31.6432 59.7888 29.9527 59.7888H26.2865C25.841 59.7888 25.4797 60.1433 25.4797 60.5809C25.4797 61.0185 25.841 61.3731 26.2865 61.3731H29.9527C32.0571 61.3731 33.8117 62.8674 34.1763 64.8318H17.3489C17.1008 64.8318 16.8991 64.6338 16.8991 64.3902V61.3731H22.8453C23.2908 61.3731 23.6521 61.0185 23.6521 60.5809C23.6521 60.1433 23.2908 59.7888 22.8453 59.7888H16.8991V35.3522C16.8991 35.3261 16.9207 35.305 16.9473 35.305H23.4122C23.8577 35.305 24.219 34.9504 24.219 34.5128C24.219 34.0753 23.8577 33.7207 23.4122 33.7207H16.9473C16.031 33.7207 15.2855 34.4526 15.2855 35.3522V35.7136H11.9001C10.9012 35.7136 10.0886 36.5114 10.0886 37.4921V65.1279C10.0886 67.8142 12.3145 69.9996 15.0506 69.9996H54.9493C57.6853 69.9996 59.9112 67.8142 59.9112 65.1279V37.4921C59.9113 36.5114 59.0988 35.7136 58.1 35.7136ZM40.155 61.3729H53.2084V64.3902C53.2084 64.6338 53.0067 64.8318 52.7586 64.8318H35.9314C36.296 62.8673 38.0505 61.3729 40.155 61.3729Z" fill="black"/>
<path d="M24.297 27.1143C24.7399 27.1546 25.1341 26.8356 25.176 26.4C25.4067 23.9978 26.5364 21.7737 28.3575 20.1375C30.1898 18.4911 32.5679 17.5843 35.0539 17.5843C40.5254 17.5843 44.9768 21.9547 44.9768 27.3267C44.9768 29.3481 44.3519 31.2866 43.1698 32.933C43.1632 32.9423 43.1567 32.9518 43.1504 32.9613L37.9875 40.8528C37.9039 40.9806 37.8594 41.1291 37.8594 41.281V42.3072C37.8594 42.5155 37.6869 42.6849 37.4748 42.6849H37.422L37.936 34.1219H38.8551C40.1703 34.1219 41.2403 33.0714 41.2403 31.7803V31.6842C41.2403 30.393 40.1703 29.3425 38.8551 29.3425C37.5943 29.3425 36.5484 30.3106 36.4742 31.5464L36.4147 32.5376H33.5854L33.5259 31.5464C33.4518 30.3106 32.4059 29.3425 31.145 29.3425C29.8298 29.3425 28.7599 30.393 28.7599 31.6842V31.7803C28.7599 33.0714 29.8298 34.1219 31.145 34.1219H32.0641L32.5778 42.6794C32.392 42.6528 32.2484 42.4969 32.2484 42.3072V41.281C32.2484 41.1291 32.204 40.9806 32.1205 40.8528L26.9575 32.9613C26.9512 32.9518 26.9448 32.9423 26.9381 32.933C26.1958 31.899 25.6729 30.75 25.3845 29.5177C25.2846 29.0913 24.8511 28.8253 24.4175 28.9232C23.9832 29.0213 23.7121 29.4463 23.8119 29.8727C24.1463 31.3005 24.7509 32.6324 25.6092 33.8315L30.635 41.5133V42.307C30.635 43.1068 31.1256 43.7954 31.8265 44.1005V45.44C31.8265 46.8496 32.9944 47.9963 34.4301 47.9963H35.6784C37.114 47.9963 38.282 46.8496 38.282 45.44V44.1005C38.9827 43.7954 39.4735 43.1069 39.4735 42.307V41.5133L44.4992 33.8315C45.8676 31.9197 46.5908 29.6707 46.5908 27.3266C46.5903 21.0811 41.4151 16 35.0539 16C32.1636 16 29.3985 17.0544 27.268 18.9688C25.1513 20.871 23.8378 23.4572 23.5696 26.2513C23.5276 26.6869 23.8533 27.0733 24.297 27.1143ZM38.085 31.6396C38.109 31.2398 38.4473 30.9267 38.8551 30.9267C39.2806 30.9267 39.6267 31.2664 39.6267 31.684V31.7802C39.6267 32.1978 39.2806 32.5375 38.8551 32.5375H38.0311L38.085 31.6396ZM31.145 32.5375C30.7196 32.5375 30.3735 32.1978 30.3735 31.7802V31.684C30.3735 31.2664 30.7196 30.9267 31.145 30.9267C31.5529 30.9267 31.8911 31.2398 31.9151 31.6396L31.969 32.5375H31.145ZM36.3196 34.1218L35.8057 42.6848H34.1945L33.6806 34.1218H36.3196ZM36.668 45.4401C36.668 45.976 36.2239 46.4121 35.678 46.4121H34.4297C33.8838 46.4121 33.4397 45.976 33.4397 45.4401V44.269H36.6678V45.4401H36.668Z" fill="black"/>
<path d="M49.1862 22.0158C49.3753 22.0158 49.565 21.9509 49.7182 21.8189L51.4785 20.3014C51.8134 20.0128 51.8464 19.5122 51.5525 19.1835C51.2587 18.8549 50.7489 18.8223 50.414 19.1109L48.6537 20.6284C48.3188 20.9169 48.2857 21.4176 48.5796 21.7462C48.7392 21.9246 48.9622 22.0158 49.1862 22.0158Z" fill="black"/>
<path d="M48.6536 26.7918L50.414 28.3094C50.5671 28.4415 50.7569 28.5062 50.946 28.5062C51.1701 28.5062 51.3931 28.4151 51.5526 28.2367C51.8466 27.908 51.8135 27.4075 51.4787 27.1188L49.7184 25.6012C49.3835 25.3125 48.8738 25.3451 48.5798 25.6739C48.2857 26.0026 48.3187 26.503 48.6536 26.7918Z" fill="black"/>
<path d="M18.629 20.3015L20.3894 21.819C20.5426 21.9512 20.7323 22.0159 20.9213 22.0159C21.1454 22.0159 21.3684 21.9248 21.5279 21.7464C21.8219 21.4177 21.7888 20.9171 21.4539 20.6285L19.6936 19.111C19.3588 18.8222 18.8489 18.8549 18.555 19.1837C18.261 19.5123 18.2942 20.0129 18.629 20.3015Z" fill="black"/>
<path d="M19.1615 28.5061C19.3505 28.5061 19.5403 28.4413 19.6936 28.3093L21.4539 26.7916C21.7887 26.503 21.8218 26.0025 21.5278 25.6738C21.2339 25.3451 20.7242 25.3126 20.3893 25.6011L18.6289 27.1187C18.2942 27.4074 18.261 27.9079 18.555 28.2366C18.7145 28.415 18.9374 28.5061 19.1615 28.5061Z" fill="black"/>
<path d="M27.9155 43.4777C27.9155 43.0401 27.5543 42.6855 27.1087 42.6855H19.1613C18.7157 42.6855 18.3545 43.0401 18.3545 43.4777C18.3545 43.9153 18.7157 44.2698 19.1613 44.2698H27.1087C27.5543 44.2698 27.9155 43.9153 27.9155 43.4777Z" fill="black"/>
<path d="M29.5667 46.7148H20.6188C20.1732 46.7148 19.812 47.0694 19.812 47.507C19.812 47.9446 20.1732 48.2991 20.6188 48.2991H29.5667C30.0123 48.2991 30.3735 47.9446 30.3735 47.507C30.3735 47.0694 30.0123 46.7148 29.5667 46.7148Z" fill="black"/>
<path d="M29.5667 50.5742H20.6188C20.1732 50.5742 19.812 50.9288 19.812 51.3664C19.812 51.8039 20.1732 52.1585 20.6188 52.1585H29.5667C30.0123 52.1585 30.3735 51.8039 30.3735 51.3664C30.3735 50.9288 30.0123 50.5742 29.5667 50.5742Z" fill="black"/>
<path d="M29.5667 54.4336H20.6188C20.1732 54.4336 19.812 54.7882 19.812 55.2257C19.812 55.6633 20.1732 56.0179 20.6188 56.0179H29.5667C30.0123 56.0179 30.3735 55.6633 30.3735 55.2257C30.3735 54.7882 30.0123 54.4336 29.5667 54.4336Z" fill="black"/>
<path d="M51.7532 43.4777C51.7532 43.0401 51.392 42.6855 50.9464 42.6855H42.9989C42.5534 42.6855 42.1921 43.0401 42.1921 43.4777C42.1921 43.9153 42.5534 44.2698 42.9989 44.2698H50.9464C51.392 44.2698 51.7532 43.9153 51.7532 43.4777Z" fill="black"/>
<path d="M49.4888 46.7148H40.5409C40.0954 46.7148 39.7341 47.0694 39.7341 47.507C39.7341 47.9446 40.0954 48.2991 40.5409 48.2991H49.4888C49.9344 48.2991 50.2956 47.9446 50.2956 47.507C50.2956 47.0694 49.9344 46.7148 49.4888 46.7148Z" fill="black"/>
<path d="M49.4888 50.5742H40.5409C40.0954 50.5742 39.7341 50.9288 39.7341 51.3664C39.7341 51.8039 40.0954 52.1585 40.5409 52.1585H49.4888C49.9344 52.1585 50.2956 51.8039 50.2956 51.3664C50.2956 50.9288 49.9344 50.5742 49.4888 50.5742Z" fill="black"/>
<path d="M49.4888 54.4336H40.5409C40.0954 54.4336 39.7341 54.7882 39.7341 55.2257C39.7341 55.6633 40.0954 56.0179 40.5409 56.0179H49.4888C49.9344 56.0179 50.2956 55.6633 50.2956 55.2257C50.2956 54.7882 49.9344 54.4336 49.4888 54.4336Z" fill="black"/>
</svg>
