<svg width="70" height="85" viewBox="0 0 70 85" fill="none" xmlns="http://www.w3.org/2000/svg">
<path d="M34 22.0156C33.7596 22.0156 33.5291 21.9218 33.3592 21.7548C33.1892 21.5877 33.0938 21.3612 33.0938 21.125V17.5625C33.0938 17.3263 33.1892 17.0998 33.3592 16.9327C33.5291 16.7657 33.7596 16.6719 34 16.6719C34.2404 16.6719 34.4709 16.7657 34.6408 16.9327C34.8108 17.0998 34.9062 17.3263 34.9062 17.5625V21.125C34.9062 21.3612 34.8108 21.5877 34.6408 21.7548C34.4709 21.9218 34.2404 22.0156 34 22.0156Z" fill="black"/>
<path d="M24.9375 24.4027C24.7783 24.4029 24.6218 24.3618 24.4839 24.2836C24.3459 24.2055 24.2314 24.0929 24.1518 23.9574L22.3393 20.8723C22.2788 20.771 22.2394 20.6589 22.2232 20.5425C22.207 20.4262 22.2144 20.3078 22.2449 20.1942C22.2755 20.0807 22.3286 19.9742 22.4012 19.8809C22.4738 19.7876 22.5645 19.7093 22.668 19.6506C22.7715 19.5918 22.8858 19.5538 23.0043 19.5387C23.1228 19.5235 23.2432 19.5316 23.3585 19.5624C23.4739 19.5931 23.5819 19.646 23.6763 19.718C23.7708 19.79 23.8498 19.8796 23.9089 19.9817L25.7214 23.0668C25.8009 23.2021 25.8428 23.3556 25.8428 23.5119C25.8429 23.6681 25.8011 23.8217 25.7216 23.957C25.6422 24.0924 25.5279 24.2048 25.3903 24.2831C25.2527 24.3613 25.0965 24.4026 24.9375 24.4027Z" fill="black"/>
<path d="M18.3029 30.9228C18.1438 30.9232 17.9874 30.882 17.8498 30.8035L14.7096 29.0222C14.5032 28.9033 14.353 28.7089 14.2918 28.4816C14.2307 28.2542 14.2635 28.0123 14.3831 27.8086C14.5028 27.6049 14.6996 27.456 14.9305 27.3944C15.1615 27.3328 15.4079 27.3634 15.6159 27.4797L18.756 29.2609C18.9288 29.359 19.0638 29.5103 19.1402 29.6914C19.2165 29.8725 19.2299 30.0733 19.1783 30.2627C19.1266 30.4521 19.0128 30.6194 18.8546 30.7388C18.6963 30.8581 18.5024 30.9228 18.3029 30.9228Z" fill="black"/>
<path d="M15.875 39.8281H12.25C12.0096 39.8281 11.7791 39.7343 11.6092 39.5673C11.4392 39.4002 11.3438 39.1737 11.3438 38.9375C11.3438 38.7013 11.4392 38.4748 11.6092 38.3077C11.7791 38.1407 12.0096 38.0469 12.25 38.0469H15.875C16.1154 38.0469 16.3459 38.1407 16.5158 38.3077C16.6858 38.4748 16.7812 38.7013 16.7812 38.9375C16.7812 39.1737 16.6858 39.4002 16.5158 39.5673C16.3459 39.7343 16.1154 39.8281 15.875 39.8281Z" fill="black"/>
<path d="M15.1645 50.5147C14.965 50.5147 14.7711 50.45 14.6128 50.3306C14.4546 50.2113 14.3408 50.0439 14.2892 49.8546C14.2375 49.6652 14.2509 49.4644 14.3273 49.2832C14.4036 49.1021 14.5386 48.9508 14.7114 48.8528L17.8515 47.0715C17.9546 47.0121 18.0687 46.9733 18.1871 46.9574C18.3055 46.9415 18.426 46.9488 18.5415 46.9788C18.6571 47.0088 18.7654 47.061 18.8604 47.1324C18.9553 47.2037 19.0349 47.2928 19.0947 47.3945C19.1545 47.4962 19.1932 47.6086 19.2086 47.725C19.224 47.8415 19.2158 47.9598 19.1845 48.0732C19.1531 48.1865 19.0993 48.2927 19.0261 48.3855C18.9529 48.4784 18.8617 48.556 18.7578 48.6141L15.6176 50.3953C15.48 50.4738 15.3236 50.515 15.1645 50.5147Z" fill="black"/>
<path d="M52.8355 50.5147C52.6764 50.515 52.5201 50.4738 52.3824 50.3953L49.2423 48.6141C49.1384 48.556 49.0472 48.4784 48.974 48.3855C48.9007 48.2927 48.8469 48.1865 48.8156 48.0732C48.7843 47.9598 48.7761 47.8415 48.7915 47.725C48.8069 47.6086 48.8456 47.4962 48.9054 47.3945C48.9651 47.2928 49.0448 47.2037 49.1397 47.1324C49.2346 47.061 49.343 47.0088 49.4585 46.9788C49.5741 46.9488 49.6945 46.9415 49.813 46.9574C49.9314 46.9733 50.0454 47.0121 50.1485 47.0715L53.2887 48.8528C53.4614 48.9508 53.5964 49.1021 53.6728 49.2832C53.7491 49.4644 53.7625 49.6652 53.7109 49.8546C53.6592 50.0439 53.5455 50.2113 53.3872 50.3306C53.2289 50.45 53.035 50.5147 52.8355 50.5147Z" fill="black"/>
<path d="M55.75 39.8281H52.125C51.8846 39.8281 51.6541 39.7343 51.4842 39.5673C51.3142 39.4002 51.2188 39.1737 51.2188 38.9375C51.2188 38.7013 51.3142 38.4748 51.4842 38.3077C51.6541 38.1407 51.8846 38.0469 52.125 38.0469H55.75C55.9904 38.0469 56.2209 38.1407 56.3908 38.3077C56.5608 38.4748 56.6562 38.7013 56.6562 38.9375C56.6562 39.1737 56.5608 39.4002 56.3908 39.5673C56.2209 39.7343 55.9904 39.8281 55.75 39.8281Z" fill="black"/>
<path d="M48.5001 38.0469H43.9688C43.9688 37.102 43.5869 36.1959 42.9071 35.5278C42.2273 34.8597 41.3052 34.4844 40.3438 34.4844C39.3824 34.4844 38.4604 34.8597 37.7806 35.5278C37.1007 36.1959 36.7188 37.102 36.7188 38.0469H34.9063V35.2111C34.9062 35.0687 34.8713 34.9285 34.8046 34.802C34.7379 34.6756 34.6414 34.5668 34.5231 34.4846C34.4048 34.4024 34.2681 34.3493 34.1246 34.3298C33.9811 34.3102 33.8349 34.3247 33.6983 34.3722C33.4241 34.4726 33.1293 34.5063 32.839 34.4705C32.5488 34.4346 32.2716 34.3302 32.0313 34.1662C31.791 34.0022 31.5946 33.7835 31.459 33.5287C31.3234 33.2739 31.2526 32.9907 31.2526 32.7031C31.2526 32.4156 31.3234 32.1323 31.459 31.8776C31.5946 31.6228 31.791 31.404 32.0313 31.24C32.2716 31.076 32.5488 30.9716 32.839 30.9358C33.1293 30.8999 33.4241 30.9337 33.6983 31.0341C33.8349 31.0815 33.9811 31.096 34.1246 31.0765C34.2681 31.0569 34.4048 31.0038 34.5231 30.9216C34.6414 30.8395 34.7379 30.7306 34.8046 30.6042C34.8713 30.4778 34.9062 30.3375 34.9063 30.1951V24.6875C34.9063 24.4513 34.8108 24.2248 34.6409 24.0577C34.4709 23.8907 34.2404 23.7969 34.0001 23.7969C30.4801 23.8 27.0674 24.9876 24.3298 27.162C21.5922 29.3364 19.6948 32.3665 18.9534 35.7481C18.2119 39.1298 18.6711 42.6589 20.2545 45.7484C21.8379 48.8379 24.4501 51.3013 27.6563 52.7288V54.0781H26.7501C26.029 54.0781 25.3375 54.3596 24.8276 54.8607C24.3177 55.3618 24.0313 56.0414 24.0313 56.75V58.5312C24.0313 59.2399 24.3177 59.9195 24.8276 60.4205C25.3375 60.9216 26.029 61.2031 26.7501 61.2031H27.6563V63.875C27.6578 65.0556 28.1356 66.1875 28.9851 67.0223C29.8345 67.8571 30.9862 68.3267 32.1876 68.3281H35.8126C37.0139 68.3267 38.1656 67.8571 39.015 67.0223C39.8645 66.1875 40.3424 65.0556 40.3438 63.875V61.2031H41.2501C41.9711 61.2031 42.6626 60.9216 43.1725 60.4205C43.6824 59.9195 43.9688 59.2399 43.9688 58.5312V56.75C43.9688 56.0414 43.6824 55.3618 43.1725 54.8607C42.6626 54.3596 41.9711 54.0781 41.2501 54.0781H40.3438V52.7288C43.049 51.5367 45.3447 49.5996 46.9531 47.152C48.5615 44.7044 49.4136 41.8511 49.4063 38.9375C49.4063 38.7013 49.3108 38.4748 49.1409 38.3077C48.9709 38.1407 48.7404 38.0469 48.5001 38.0469ZM33.0938 25.6075V29.1406C32.1324 29.1406 31.2104 29.516 30.5306 30.1841C29.8507 30.8522 29.4688 31.7583 29.4688 32.7031C29.4688 33.648 29.8507 34.5541 30.5306 35.2222C31.2104 35.8903 32.1324 36.2656 33.0938 36.2656V38.0469H30.2083C30.0633 38.047 29.9205 38.0812 29.7917 38.1468C29.663 38.2124 29.5522 38.3074 29.4685 38.4238C29.3849 38.5402 29.3309 38.6746 29.3111 38.8157C29.2913 38.9569 29.3062 39.1007 29.3546 39.235C29.4568 39.5044 29.4911 39.7941 29.4547 40.0794C29.4182 40.3647 29.3119 40.637 29.1451 40.8732C28.9782 41.1094 28.7556 41.3023 28.4964 41.4356C28.2371 41.5689 27.9489 41.6385 27.6563 41.6385C27.3637 41.6385 27.0755 41.5689 26.8163 41.4356C26.557 41.3023 26.3344 41.1094 26.1676 40.8732C26.0007 40.637 25.8945 40.3647 25.858 40.0794C25.8215 39.7941 25.8558 39.5044 25.958 39.235C26.0064 39.1007 26.0214 38.9569 26.0015 38.8157C25.9817 38.6746 25.9277 38.5402 25.8441 38.4238C25.7604 38.3074 25.6496 38.2124 25.5209 38.1468C25.3922 38.0812 25.2493 38.047 25.1043 38.0469H20.4362C20.6599 34.8202 22.0653 31.7823 24.3923 29.4954C26.7194 27.2085 29.8105 25.8274 33.0938 25.6075ZM28.9024 51.3172C26.5325 50.382 24.4802 48.8069 22.9827 46.7738C21.4852 44.7408 20.6036 42.3328 20.4398 39.8281H24.0313C24.0313 40.773 24.4132 41.6791 25.093 42.3472C25.7729 43.0153 26.6949 43.3906 27.6563 43.3906C28.6177 43.3906 29.5398 43.0153 30.2196 42.3472C30.8994 41.6791 31.2813 40.773 31.2813 39.8281H33.0938V42.6639C33.0939 42.8063 33.1288 42.9465 33.1955 43.073C33.2622 43.1994 33.3587 43.3082 33.4771 43.3904C33.5954 43.4726 33.732 43.5257 33.8755 43.5452C34.019 43.5648 34.1652 43.5503 34.3018 43.5028C34.576 43.4024 34.8708 43.3687 35.1611 43.4045C35.4514 43.4404 35.7285 43.5448 35.9688 43.7088C36.2091 43.8728 36.4055 44.0915 36.5411 44.3463C36.6767 44.6011 36.7475 44.8843 36.7475 45.1719C36.7475 45.4594 36.6767 45.7427 36.5411 45.9974C36.4055 46.2522 36.2091 46.471 35.9688 46.635C35.7285 46.799 35.4514 46.9034 35.1611 46.9392C34.8708 46.9751 34.576 46.9413 34.3018 46.8409C34.1652 46.7935 34.019 46.779 33.8755 46.7985C33.732 46.8181 33.5954 46.8712 33.4771 46.9534C33.3587 47.0355 33.2622 47.1444 33.1955 47.2708C33.1288 47.3972 33.0939 47.5375 33.0938 47.6799V54.0781H29.4688V52.1419C29.4686 51.9647 29.4146 51.7915 29.3137 51.6446C29.2128 51.4976 29.0696 51.3837 28.9024 51.3172ZM38.5313 63.875C38.5313 64.5836 38.2449 65.2632 37.735 65.7643C37.2251 66.2654 36.5336 66.5469 35.8126 66.5469H32.1876C31.4665 66.5469 30.775 66.2654 30.2651 65.7643C29.7553 65.2632 29.4688 64.5836 29.4688 63.875V61.2031H31.2813V63.875C31.2813 64.1112 31.3768 64.3377 31.5467 64.5048C31.7167 64.6718 31.9472 64.7656 32.1876 64.7656C32.4279 64.7656 32.6584 64.6718 32.8284 64.5048C32.9983 64.3377 33.0938 64.1112 33.0938 63.875V61.2031H34.9063V63.875C34.9063 64.1112 35.0018 64.3377 35.1717 64.5048C35.3417 64.6718 35.5722 64.7656 35.8126 64.7656C36.0529 64.7656 36.2834 64.6718 36.4534 64.5048C36.6233 64.3377 36.7188 64.1112 36.7188 63.875V61.2031H38.5313V63.875ZM41.2501 55.8594C41.4904 55.8594 41.7209 55.9532 41.8909 56.1202C42.0608 56.2873 42.1563 56.5138 42.1563 56.75V58.5312C42.1563 58.7675 42.0608 58.994 41.8909 59.161C41.7209 59.328 41.4904 59.4219 41.2501 59.4219H26.7501C26.5097 59.4219 26.2792 59.328 26.1092 59.161C25.9393 58.994 25.8438 58.7675 25.8438 58.5312V56.75C25.8438 56.5138 25.9393 56.2873 26.1092 56.1202C26.2792 55.9532 26.5097 55.8594 26.7501 55.8594H41.2501ZM39.0977 51.3172C38.9304 51.3837 38.7871 51.4978 38.6861 51.6449C38.5852 51.792 38.5313 51.9654 38.5313 52.1428V54.0781H34.9063V48.7344C35.8677 48.7344 36.7898 48.359 37.4696 47.6909C38.1494 47.0228 38.5313 46.1167 38.5313 45.1719C38.5313 44.227 38.1494 43.3209 37.4696 42.6528C36.7898 41.9847 35.8677 41.6094 34.9063 41.6094V39.8281H37.7918C37.9368 39.828 38.0797 39.7938 38.2084 39.7282C38.3371 39.6626 38.4479 39.5676 38.5316 39.4512C38.6152 39.3348 38.6692 39.2004 38.689 39.0593C38.7089 38.9181 38.6939 38.7743 38.6455 38.64C38.5433 38.3706 38.509 38.0809 38.5455 37.7956C38.582 37.5103 38.6882 37.238 38.8551 37.0018C39.0219 36.7656 39.2445 36.5727 39.5038 36.4394C39.763 36.3061 40.0512 36.2365 40.3438 36.2365C40.6364 36.2365 40.9246 36.3061 41.1839 36.4394C41.4431 36.5727 41.6657 36.7656 41.8326 37.0018C41.9994 37.238 42.1057 37.5103 42.1422 37.7956C42.1787 38.0809 42.1443 38.3706 42.0421 38.64C41.9937 38.7743 41.9788 38.9181 41.9986 39.0593C42.0184 39.2004 42.0724 39.3348 42.156 39.4512C42.2397 39.5676 42.3505 39.6626 42.4792 39.7282C42.608 39.7938 42.7508 39.828 42.8958 39.8281H47.5639C47.3994 42.3331 46.5171 44.7411 45.019 46.7741C43.5209 48.8072 41.4681 50.3822 39.0977 51.3172Z" fill="black"/>
<path d="M41.25 16.6719C41.0096 16.6719 40.7791 16.7657 40.6092 16.9327C40.4392 17.0998 40.3438 17.3263 40.3438 17.5625V22.0156C39.3823 22.0156 38.4603 22.391 37.7805 23.0591C37.1007 23.7272 36.7188 24.6333 36.7188 25.5781C36.7188 26.523 37.1007 27.4291 37.7805 28.0972C38.4603 28.7653 39.3823 29.1406 40.3438 29.1406V31.8125C40.3438 32.0487 40.4392 32.2752 40.6092 32.4423C40.7791 32.6093 41.0096 32.7031 41.25 32.7031H45.0417C45.1867 32.703 45.3296 32.6688 45.4583 32.6032C45.587 32.5376 45.6979 32.4426 45.7815 32.3262C45.8652 32.2098 45.9191 32.0754 45.939 31.9343C45.9588 31.7931 45.9439 31.6493 45.8954 31.515C45.7932 31.2456 45.7589 30.9559 45.7954 30.6706C45.8319 30.3853 45.9381 30.113 46.105 29.8768C46.2719 29.6406 46.4945 29.4477 46.7537 29.3144C47.013 29.1811 47.3012 29.1115 47.5938 29.1115C47.8863 29.1115 48.1745 29.1811 48.4338 29.3144C48.693 29.4477 48.9156 29.6406 49.0825 29.8768C49.2494 30.113 49.3556 30.3853 49.3921 30.6706C49.4286 30.9559 49.3943 31.2456 49.2921 31.515C49.2436 31.6493 49.2287 31.7931 49.2485 31.9343C49.2684 32.0754 49.3223 32.2098 49.406 32.3262C49.4896 32.4426 49.6005 32.5376 49.7292 32.6032C49.8579 32.6688 50.0008 32.703 50.1458 32.7031H55.75C55.9904 32.7031 56.2209 32.6093 56.3908 32.4423C56.5608 32.2752 56.6562 32.0487 56.6562 31.8125C56.6517 27.7983 55.0271 23.9499 52.1388 21.1114C49.2506 18.273 45.3346 16.6764 41.25 16.6719ZM51.2188 30.9219C51.2188 29.977 50.8368 29.0709 50.157 28.4028C49.4772 27.7347 48.5552 27.3594 47.5938 27.3594C46.6323 27.3594 45.7103 27.7347 45.0305 28.4028C44.3507 29.0709 43.9688 29.977 43.9688 30.9219H42.1562V28.0861C42.1561 27.9437 42.1212 27.8035 42.0546 27.677C41.9879 27.5506 41.8913 27.4418 41.773 27.3596C41.6547 27.2774 41.518 27.2243 41.3745 27.2048C41.231 27.1852 41.0848 27.1997 40.9482 27.2472C40.6741 27.3476 40.3793 27.3813 40.089 27.3455C39.7987 27.3096 39.5216 27.2052 39.2812 27.0412C39.0409 26.8772 38.8446 26.6585 38.709 26.4037C38.5734 26.1489 38.5026 25.8657 38.5026 25.5781C38.5026 25.2906 38.5734 25.0073 38.709 24.7526C38.8446 24.4978 39.0409 24.279 39.2812 24.115C39.5216 23.951 39.7987 23.8466 40.089 23.8108C40.3793 23.7749 40.6741 23.8087 40.9482 23.9091C41.0848 23.9565 41.231 23.971 41.3745 23.9515C41.518 23.9319 41.6547 23.8788 41.773 23.7966C41.8913 23.7145 41.9879 23.6056 42.0546 23.4792C42.1212 23.3528 42.1561 23.2125 42.1562 23.0701V18.4825C45.4395 18.7024 48.5307 20.0835 50.8577 22.3704C53.1847 24.6573 54.5901 27.6952 54.8138 30.9219H51.2188Z" fill="black"/>
</svg>
