<svg width="70" height="85" viewBox="0 0 70 85" fill="none" xmlns="http://www.w3.org/2000/svg">
<g clip-path="url(#clip0_169_131)">
<path d="M45.1685 51.4361C45.1682 50.9857 45.0916 50.5387 44.9422 50.1138C45.5202 49.7058 45.9917 49.1649 46.3172 48.5367C46.6427 47.9085 46.8126 47.2114 46.8127 46.5039C46.8127 45.7964 46.6429 45.0992 46.3175 44.4709C45.9921 43.8427 45.5207 43.3018 44.9428 42.8936C45.1522 42.2676 45.2051 41.5998 45.0968 40.9487C44.9884 40.2976 44.7222 39.6829 44.3214 39.1584C43.9206 38.6339 43.3974 38.2157 42.7976 37.9401C42.1977 37.6646 41.5395 37.5403 40.8805 37.578C40.6938 37.0014 40.3636 36.4816 39.9211 36.0675C39.4786 35.6533 38.9381 35.3584 38.3504 35.2102C37.7627 35.062 37.147 35.0655 36.561 35.2203C35.975 35.3751 35.438 35.6762 35.0001 36.0954C34.5584 35.6855 34.0212 35.3926 33.4374 35.2432C32.8536 35.0938 32.2417 35.0928 31.6574 35.2401C31.0731 35.3874 30.5349 35.6785 30.0917 36.0868C29.6485 36.4951 29.3144 37.0077 29.1198 37.578C28.4596 37.5359 27.7992 37.6573 27.1972 37.9314C26.5951 38.2055 26.07 38.6239 25.6683 39.1495C25.2666 39.6751 25.0008 40.2917 24.8943 40.9446C24.7879 41.5975 24.8442 42.2666 25.0581 42.8925C24.4874 43.3057 24.0228 43.8484 23.7024 44.4759C23.382 45.1034 23.2149 45.7979 23.2148 46.5025C23.2148 47.2071 23.3818 47.9017 23.7021 48.5293C24.0225 49.1568 24.487 49.6995 25.0576 50.1128C24.8438 50.7388 24.7876 51.408 24.894 52.061C25.0005 52.7139 25.2664 53.3305 25.6681 53.8562C26.0698 54.3819 26.595 54.8004 27.197 55.0746C27.7991 55.3488 28.4595 55.4704 29.1198 55.4284C29.3144 55.9987 29.6485 56.5113 30.0917 56.9197C30.5349 57.328 31.0731 57.619 31.6574 57.7663C32.2418 57.9136 32.8536 57.9125 33.4374 57.7631C34.0212 57.6137 34.5584 57.3208 35.0001 56.9109C35.4419 57.3208 35.9791 57.6137 36.5629 57.7631C37.1467 57.9125 37.7586 57.9136 38.3429 57.7663C38.9272 57.619 39.4654 57.3279 39.9086 56.9196C40.3518 56.5113 40.6859 55.9987 40.8805 55.4283C41.4277 55.4626 41.9761 55.385 42.4923 55.2003C43.0084 55.0156 43.4816 54.7277 43.8828 54.3541C44.2841 53.9805 44.605 53.5291 44.8261 53.0274C45.0471 52.5257 45.1636 51.9843 45.1685 51.4361ZM33.8751 54.3134C33.8751 54.4957 33.8379 54.676 33.7659 54.8435C33.6938 55.0109 33.5884 55.1619 33.456 55.2873C33.3237 55.4127 33.1672 55.5097 32.996 55.5726C32.8249 55.6354 32.6428 55.6628 32.4608 55.6529C32.2787 55.643 32.1006 55.5962 31.9373 55.5152C31.774 55.4342 31.6289 55.3208 31.5108 55.1819C31.3928 55.043 31.3043 54.8814 31.2508 54.7072C31.1972 54.5329 31.1798 54.3496 31.1994 54.1684C31.2226 53.9676 31.1916 53.7643 31.1097 53.5795C31.0278 53.3947 30.898 53.2353 30.7336 53.1176C30.5693 53 30.3765 52.9284 30.1752 52.9104C29.9739 52.8925 29.7714 52.9287 29.5888 53.0153C29.3217 53.1405 29.0274 53.1966 28.7329 53.1784C28.4384 53.1601 28.1533 53.0681 27.9036 52.9109C27.654 52.7536 27.4479 52.5361 27.3043 52.2784C27.1607 52.0207 27.0842 51.731 27.0818 51.436C27.079 51.0393 27.2148 50.654 27.4657 50.3468C27.5796 50.2043 27.6574 50.0364 27.6925 49.8573C27.7277 49.6783 27.719 49.4935 27.6673 49.3185C27.6157 49.1436 27.5225 48.9837 27.3958 48.8524C27.2691 48.7212 27.1125 48.6225 26.9395 48.5648C26.5032 48.4242 26.1228 48.1489 25.853 47.7785C25.5831 47.408 25.4377 46.9615 25.4377 46.5032C25.4377 46.0449 25.5831 45.5984 25.853 45.2279C26.1228 44.8575 26.5032 44.5822 26.9395 44.4416C27.1121 44.384 27.2683 44.2856 27.3949 44.1548C27.5215 44.0241 27.6147 43.8647 27.6666 43.6903C27.7186 43.5158 27.7278 43.3314 27.6934 43.1527C27.659 42.974 27.582 42.8062 27.469 42.6635C27.2173 42.3549 27.0805 41.9686 27.0818 41.5703C27.0842 41.2753 27.1607 40.9856 27.3043 40.7279C27.4479 40.4702 27.654 40.2527 27.9036 40.0955C28.1533 39.9382 28.4384 39.8462 28.7329 39.828C29.0274 39.8097 29.3217 39.8658 29.5888 39.9911C29.7714 40.0777 29.9739 40.1139 30.1752 40.0959C30.3765 40.0779 30.5693 40.0063 30.7336 39.8887C30.898 39.771 31.0278 39.6116 31.1097 39.4268C31.1916 39.242 31.2226 39.0387 31.1994 38.8379C31.1798 38.6567 31.1973 38.4734 31.2508 38.2992C31.3044 38.1249 31.3929 37.9634 31.5109 37.8245C31.629 37.6856 31.7741 37.5722 31.9374 37.4913C32.1007 37.4103 32.2788 37.3635 32.4608 37.3536C32.6428 37.3438 32.8249 37.3711 32.996 37.4339C33.1671 37.4968 33.3236 37.5938 33.456 37.7192C33.5883 37.8445 33.6938 37.9955 33.7658 38.1629C33.8379 38.3304 33.8751 38.5107 33.8751 38.693V54.3134ZM43.0608 48.5648C42.8881 48.6224 42.7319 48.7208 42.6053 48.8516C42.4788 48.9823 42.3855 49.1417 42.3336 49.3161C42.2817 49.4906 42.2725 49.675 42.3069 49.8537C42.3413 50.0324 42.4182 50.2002 42.5312 50.3429C42.7829 50.6515 42.9198 51.0378 42.9185 51.4361C42.918 51.9006 42.7332 52.346 42.4047 52.6745C42.0762 53.003 41.6308 53.1878 41.1663 53.1884C40.5098 53.1888 39.873 52.6049 39.2618 53.111C39.0802 53.248 38.9411 53.4336 38.8608 53.6465C38.7805 53.8593 38.7622 54.0906 38.8081 54.3134C38.8032 54.6659 38.6597 55.0024 38.4086 55.2499C38.1576 55.4975 37.8192 55.6363 37.4666 55.6363C37.114 55.6363 36.7756 55.4975 36.5245 55.2499C36.2735 55.0023 36.13 54.6659 36.1251 54.3133V38.693C36.1303 38.3406 36.2738 38.0044 36.5249 37.757C36.7759 37.5096 37.1142 37.3709 37.4666 37.3709C37.8191 37.3709 38.1573 37.5096 38.4083 37.757C38.6594 38.0044 38.8029 38.3407 38.808 38.6931C38.7622 38.9159 38.7805 39.1471 38.8608 39.3599C38.9411 39.5728 39.0802 39.7585 39.2617 39.8955C39.8753 40.4015 40.5088 39.8178 41.1662 39.8179C41.6308 39.8185 42.0762 40.0033 42.4047 40.3318C42.7332 40.6603 42.918 41.1057 42.9185 41.5703C42.9214 41.9671 42.7855 42.3523 42.5346 42.6596C42.4207 42.8021 42.3428 42.97 42.3077 43.149C42.2726 43.3281 42.2813 43.5129 42.333 43.6879C42.3846 43.8628 42.4778 44.0227 42.6045 44.154C42.7312 44.2852 42.8878 44.3839 43.0608 44.4416C43.491 44.5884 43.8645 44.8661 44.1289 45.2358C44.3934 45.6055 44.5356 46.0487 44.5355 46.5032C44.5355 46.9578 44.3933 47.4009 44.1289 47.7706C43.8644 48.1403 43.491 48.418 43.0608 48.5648Z" fill="black"/>
<path d="M64.9101 32.775C64.6828 32.1677 64.2766 31.6438 63.745 31.2724C63.2135 30.901 62.5817 30.6998 61.9333 30.6953H58.2211C57.6514 30.6959 57.1052 30.9224 56.7024 31.3251C56.2995 31.7279 56.0729 32.274 56.0722 32.8437V35.1387C56.0798 35.5951 56.2032 36.0421 56.4307 36.4378C56.6583 36.8335 56.9826 37.1649 57.3733 37.401C57.7639 37.6371 58.2081 37.7701 58.6642 37.7877C59.1204 37.8052 59.5735 37.7066 59.9811 37.5012C59.7643 39.2776 59.3456 41.0235 58.733 42.705C55.5055 39.2569 51.244 40.5422 48.959 43.2847C48.7664 43.5074 48.6688 43.7967 48.6871 44.0905C48.7053 44.3844 48.8381 44.6593 49.0568 44.8564C49.2755 45.0535 49.5627 45.157 49.8569 45.1447C50.151 45.1324 50.4286 45.0053 50.6301 44.7907C52.7896 42.2454 55.718 42.0193 58.1227 45.4259C58.2367 45.5729 58.385 45.6897 58.5547 45.7658C58.7245 45.8419 58.9103 45.8751 59.0959 45.8623C59.2815 45.8496 59.461 45.7914 59.6188 45.6928C59.7765 45.5943 59.9076 45.4584 60.0004 45.2971C62.0971 41.5663 62.3926 36.1011 62.4042 35.8698C62.4114 35.6843 62.373 35.4997 62.2921 35.3325C62.2113 35.1653 62.0907 35.0205 61.9407 34.9109C61.7908 34.8013 61.6162 34.7302 61.4324 34.704C61.2485 34.6777 61.061 34.697 60.8864 34.7602L58.8655 35.5166C58.8046 35.5422 58.7383 35.5519 58.6726 35.545C58.607 35.538 58.5442 35.5146 58.49 35.4769C58.4358 35.4392 58.392 35.3885 58.3627 35.3294C58.3333 35.2702 58.3194 35.2047 58.3222 35.1387V32.9453H61.9334C62.1208 32.9473 62.3033 33.0056 62.4571 33.1126C62.611 33.2195 62.7292 33.3702 62.7964 33.5452C63.5953 35.9352 64.0841 38.4179 64.2509 40.9324C64.024 43.4934 63.4037 46.0041 62.4118 48.3762C60.4081 49.6368 58.169 50.4767 55.8305 50.8449C53.4921 51.2131 51.1032 51.1019 48.8091 50.5179C48.5198 50.4453 48.2134 50.4904 47.9574 50.6435C47.7013 50.7965 47.5165 51.045 47.4435 51.3342C46.904 53.377 51.8266 53.1823 53.1019 53.3075C56.9848 53.3282 60.7841 52.1793 64.0048 50.0103C64.1642 49.8903 64.289 49.7301 64.3663 49.5462C64.4531 49.3386 66.5009 44.415 66.5009 40.9324C66.3363 38.1545 65.8013 35.4112 64.9101 32.775Z" fill="black"/>
<path d="M21.1918 50.5179C18.8977 51.1019 16.5088 51.2131 14.1704 50.8449C11.8319 50.4767 9.59279 49.6368 7.58912 48.3762C6.59718 46.0041 5.97686 43.4934 5.75 40.9324C5.91612 38.4249 6.40236 35.949 7.1969 33.565C7.2623 33.3857 7.38054 33.2305 7.53599 33.1199C7.69144 33.0093 7.87679 32.9484 8.06757 32.9453H11.6788C11.6496 36.1384 12.1235 35.8691 9.1146 34.7602C8.93997 34.6969 8.75244 34.6775 8.56853 34.7037C8.38463 34.7299 8.21 34.801 8.06004 34.9106C7.91008 35.0203 7.7894 35.1651 7.70862 35.3324C7.62784 35.4997 7.58946 35.6843 7.59684 35.8699C7.60839 36.1012 7.90391 41.5663 10.0007 45.2973C10.0934 45.4585 10.2244 45.5945 10.3822 45.6931C10.5399 45.7917 10.7195 45.8499 10.9052 45.8626C11.0908 45.8753 11.2766 45.8421 11.4463 45.7659C11.6161 45.6897 11.7644 45.5729 11.8782 45.4257C13.1383 43.7619 14.4199 42.8913 15.6883 42.8369C16.4051 42.8846 17.1038 43.0834 17.7385 43.4201C18.3731 43.7568 18.9294 44.224 19.3709 44.7908C19.5724 45.0056 19.8501 45.1328 20.1443 45.1451C20.4386 45.1574 20.7259 45.0539 20.9447 44.8567C21.1634 44.6595 21.2961 44.3844 21.3143 44.0904C21.3325 43.7965 21.2347 43.5071 21.0418 43.2845C18.7909 40.5435 14.4508 39.2673 11.2679 42.7052C10.6555 41.0237 10.2368 39.2778 10.0198 37.5013C10.4275 37.7068 10.8806 37.8054 11.3367 37.7878C11.7929 37.7703 12.2371 37.6372 12.6278 37.4011C13.0184 37.1649 13.3427 36.8335 13.5703 36.4378C13.7978 36.042 13.9212 35.595 13.9287 35.1386V32.8437C13.9281 32.274 13.7014 31.7279 13.2985 31.3251C12.8957 30.9224 12.3495 30.6959 11.7798 30.6953H8.06757C7.41578 30.7009 6.78112 30.9047 6.248 31.2797C5.71489 31.6548 5.30859 32.1832 5.08313 32.7948C4.19634 35.425 3.66395 38.1616 3.5 40.9324C3.5 44.415 5.54785 49.3386 5.63464 49.5462C5.71195 49.7302 5.83667 49.8903 5.99609 50.0104C9.21683 52.1793 13.016 53.3282 16.8989 53.3074C18.5318 53.3048 20.1582 53.1008 21.7412 52.6999C22.0294 52.626 22.2767 52.441 22.4288 52.1853C22.581 51.9295 22.6256 51.6239 22.553 51.3354C22.4803 51.0468 22.2963 50.7988 22.0412 50.6456C21.7861 50.4924 21.4807 50.4465 21.1918 50.5179Z" fill="black"/>
<path d="M35 28.5C35.2984 28.5 35.5845 28.3815 35.7955 28.1705C36.0065 27.9595 36.125 27.6734 36.125 27.375V25.125C36.125 24.8266 36.0065 24.5405 35.7955 24.3295C35.5845 24.1185 35.2984 24 35 24C34.7016 24 34.4155 24.1185 34.2045 24.3295C33.9935 24.5405 33.875 24.8266 33.875 25.125V27.375C33.875 27.6734 33.9935 27.9595 34.2045 28.1705C34.4155 28.3815 34.7016 28.5 35 28.5Z" fill="black"/>
<path d="M24.4624 30.5005C24.6146 30.753 24.8598 30.9356 25.1452 31.0092C25.4306 31.0828 25.7335 31.0414 25.9888 30.8941C26.2441 30.7467 26.4313 30.5051 26.5104 30.2211C26.5894 29.9371 26.5538 29.6335 26.4113 29.3755L25.2864 27.4271C25.1342 27.1747 24.889 26.992 24.6036 26.9185C24.3182 26.8449 24.0153 26.8862 23.76 27.0336C23.5047 27.1809 23.3175 27.4226 23.2384 27.7065C23.1594 27.9905 23.195 28.2941 23.3375 28.5522L24.4624 30.5005Z" fill="black"/>
<path d="M17.875 55.0847L15.9266 56.2097C15.7168 56.3366 15.554 56.5283 15.4625 56.7558C15.371 56.9833 15.356 57.2344 15.4196 57.4712C15.4831 57.708 15.6219 57.9178 15.815 58.0689C16.0081 58.22 16.2451 58.3043 16.4903 58.3091C16.9241 58.3829 18.6108 57.2051 19 57.0337C19.252 56.8813 19.4342 56.6362 19.5075 56.351C19.5808 56.0658 19.5395 55.7632 19.3922 55.5081C19.245 55.2531 19.0037 55.0659 18.7201 54.9867C18.4364 54.9076 18.1331 54.9427 17.875 55.0847Z" fill="black"/>
<path d="M26.0005 62.0885C25.8725 62.0145 25.7313 61.9665 25.5847 61.9472C25.4382 61.9278 25.2893 61.9376 25.1466 61.9758C25.0038 62.0141 24.87 62.0801 24.7528 62.1702C24.6356 62.2602 24.5373 62.3724 24.4635 62.5005L23.3385 64.4489C23.2645 64.5769 23.2165 64.7182 23.1972 64.8647C23.1778 65.0112 23.1876 65.1602 23.2258 65.3029C23.264 65.4457 23.33 65.5796 23.42 65.6968C23.51 65.8141 23.6222 65.9125 23.7502 65.9864C23.8782 66.0603 24.0195 66.1082 24.1661 66.1275C24.3126 66.1467 24.4615 66.1369 24.6043 66.0986C24.747 66.0603 24.8808 65.9943 24.9981 65.9042C25.1153 65.8142 25.2136 65.7019 25.2875 65.5739L26.4125 63.6255C26.5616 63.367 26.6019 63.0599 26.5247 62.7717C26.4474 62.4835 26.2589 62.2377 26.0005 62.0885Z" fill="black"/>
<path d="M35 64.5C34.7016 64.5 34.4155 64.6185 34.2045 64.8295C33.9935 65.0405 33.875 65.3266 33.875 65.625V67.875C33.875 68.1734 33.9935 68.4595 34.2045 68.6705C34.4155 68.8815 34.7016 69 35 69C35.2984 69 35.5845 68.8815 35.7955 68.6705C36.0065 68.4595 36.125 68.1734 36.125 67.875V65.625C36.125 65.3266 36.0065 65.0405 35.7955 64.8295C35.5845 64.6185 35.2984 64.5 35 64.5Z" fill="black"/>
<path d="M45.5364 62.4974C45.3842 62.245 45.139 62.0624 44.8536 61.9888C44.5682 61.9152 44.2653 61.9565 44.01 62.1039C43.7547 62.2512 43.5675 62.4929 43.4884 62.7768C43.4094 63.0608 43.445 63.3645 43.5875 63.6225L44.7124 65.5708C44.8646 65.8233 45.1098 66.0059 45.3952 66.0795C45.6806 66.1531 45.9835 66.1118 46.2388 65.9644C46.4941 65.817 46.6813 65.5754 46.7604 65.2914C46.8394 65.0074 46.8038 64.7038 46.6613 64.4458L45.5364 62.4974Z" fill="black"/>
<path d="M54.0741 56.2135L52.1257 55.0885C51.9977 55.0145 51.8564 54.9665 51.7099 54.9472C51.5633 54.9278 51.4144 54.9376 51.2716 54.9758C51.1289 55.014 50.995 55.08 50.8777 55.17C50.7605 55.26 50.6621 55.3722 50.5882 55.5002C50.5143 55.6282 50.4664 55.7695 50.4471 55.9161C50.4278 56.0626 50.4376 56.2115 50.4759 56.3543C50.5142 56.497 50.5803 56.6309 50.6703 56.7481C50.7604 56.8653 50.8726 56.9636 51.0007 57.0375C51.3998 57.2139 53.0669 58.3822 53.5106 58.313C53.7557 58.3081 53.9927 58.2238 54.1858 58.0727C54.3788 57.9216 54.5176 57.7118 54.5812 57.475C54.6447 57.2381 54.6297 56.9871 54.5382 56.7596C54.4468 56.5321 54.2839 56.3404 54.0741 56.2135Z" fill="black"/>
<path d="M44.0001 30.908C44.2586 31.0567 44.5656 31.0969 44.8537 31.0196C45.1418 30.9424 45.3876 30.7541 45.5371 30.496L46.6621 28.5476C46.736 28.4196 46.784 28.2783 46.8034 28.1317C46.8227 27.9852 46.813 27.8363 46.7748 27.6935C46.7365 27.5507 46.6705 27.4169 46.5806 27.2996C46.4906 27.1824 46.3784 27.084 46.2504 27.0101C46.1224 26.9362 45.981 26.8882 45.8345 26.869C45.6879 26.8497 45.539 26.8595 45.3963 26.8978C45.2535 26.9361 45.1197 27.0022 45.0025 27.0922C44.8853 27.1823 44.7869 27.2945 44.7131 27.4226L43.5881 29.371C43.439 29.6294 43.3986 29.9365 43.4759 30.2248C43.5531 30.513 43.7417 30.7587 44.0001 30.908Z" fill="black"/>
</g>
<defs>
<clipPath id="clip0_169_131">
<rect width="70" height="85" fill="white"/>
</clipPath>
</defs>
</svg>
