<svg width="71" height="85" viewBox="0 0 71 85" fill="none" xmlns="http://www.w3.org/2000/svg">
<path d="M35.4999 24.0781C30.7699 24.0781 26.9199 27.9281 26.9199 32.6581C26.9199 37.3881 30.7699 41.2381 35.4999 41.2381C40.2299 41.2381 44.0799 37.3881 44.0799 32.6581C44.0799 27.9281 40.2299 24.0781 35.4999 24.0781ZM35.4999 39.2481C31.8699 39.2481 28.9199 36.2981 28.9199 32.6581C28.9199 29.0181 31.8699 26.0781 35.4999 26.0781C39.1299 26.0781 42.0799 29.0281 42.0799 32.6581C42.0799 36.2881 39.1299 39.2481 35.4999 39.2481Z" fill="black"/>
<path d="M38.2295 31.6597H36.4995V29.9297C36.4995 29.3797 36.0495 28.9297 35.4995 28.9297C34.9495 28.9297 34.4995 29.3797 34.4995 29.9297V31.6597H32.7695C32.2195 31.6597 31.7695 32.1097 31.7695 32.6597C31.7695 33.2097 32.2195 33.6597 32.7695 33.6597H34.4995V35.3897C34.4995 35.9397 34.9495 36.3897 35.4995 36.3897C36.0495 36.3897 36.4995 35.9397 36.4995 35.3897V33.6597H38.2295C38.7795 33.6597 39.2295 33.2097 39.2295 32.6597C39.2295 32.1097 38.7795 31.6597 38.2295 31.6597Z" fill="black"/>
<path d="M64.6903 44.0069L54.4803 23.0569C53.7603 21.5869 52.0903 20.7669 50.3503 21.2769C49.4403 21.5669 48.7103 22.1869 48.2903 23.0469C47.8703 23.8969 47.8203 24.8469 48.1503 25.7369L54.9903 44.2769L52.5003 47.3669L50.6403 42.3969C50.2903 41.4569 49.5403 40.7269 48.6103 40.4069C47.6403 40.0669 46.5903 40.1669 45.7103 40.6969C44.8403 41.2269 44.2603 42.1069 44.1203 43.1169L43.2903 49.1769C43.1103 50.4769 43.4203 51.7869 44.1503 52.8769L47.6003 58.0469V62.8769C47.6003 63.4269 48.0503 63.8769 48.6003 63.8769H60.1303C60.5703 63.8769 60.9603 63.5869 61.0903 63.1669L65.1803 49.8769C65.7803 47.9269 65.6203 45.8469 64.7203 44.0069H64.6903ZM63.2303 49.2869L59.3603 61.8769H49.5703V57.7369C49.5703 57.5369 49.5103 57.3469 49.4003 57.1769L45.7803 51.7569C45.3203 51.0769 45.1303 50.2569 45.2403 49.4369L46.0703 43.3769C46.1303 42.9669 46.3603 42.6069 46.7203 42.3969C47.0803 42.1769 47.5103 42.1369 47.9203 42.2769C48.3003 42.4069 48.6003 42.6969 48.7403 43.0769L51.2203 49.6869C51.3503 50.0269 51.6403 50.2669 52.0003 50.3269C52.3603 50.3869 52.7103 50.2469 52.9403 49.9669L56.8803 45.0669C57.1003 44.7969 57.1603 44.4269 57.0403 44.0969L50.0103 25.0269C49.8803 24.6569 49.9003 24.2669 50.0703 23.9169C50.2503 23.5569 50.5503 23.2969 50.9203 23.1769C51.6703 22.9569 52.3703 23.3069 52.6703 23.9169L62.8803 44.8669C63.5503 46.2469 63.6703 47.8069 63.2203 49.2669L63.2303 49.2869Z" fill="black"/>
<path d="M26.8993 43.1169C26.7593 42.1069 26.1793 41.2269 25.3093 40.6969C24.4293 40.1669 23.3693 40.0569 22.4193 40.3969C21.4693 40.7169 20.7293 41.4469 20.3793 42.3869L18.5193 47.3569L16.0293 44.2669L22.8693 25.7269C23.1893 24.8469 23.1393 23.8869 22.7293 23.0469C22.3093 22.1969 21.5793 21.5669 20.6493 21.2769C18.9793 20.7869 17.2493 21.5869 16.5293 23.0669L6.30933 44.0069C5.41933 45.8369 5.25933 47.9269 5.84933 49.8769L9.93933 63.1669C10.0693 63.5869 10.4593 63.8769 10.8993 63.8769H22.4293C22.9793 63.8769 23.4293 63.4269 23.4293 62.8769V58.0469L26.8793 52.8769C27.6093 51.7869 27.9093 50.4769 27.7393 49.1769L26.9093 43.1169H26.8993ZM25.2093 51.7669L21.5893 57.1869C21.4793 57.3569 21.4193 57.5469 21.4193 57.7469V61.8869H11.6293L7.75933 49.2969C7.30933 47.8369 7.42933 46.2669 8.09933 44.8969L18.3193 23.9369C18.6193 23.3169 19.3793 22.9869 20.0593 23.1869C20.4393 23.3069 20.7493 23.5669 20.9293 23.9269C21.0993 24.2769 21.1293 24.6769 20.9893 25.0369L13.9593 44.1069C13.8393 44.4369 13.8993 44.8069 14.1193 45.0769L18.0593 49.9769C18.2893 50.2569 18.6393 50.3969 18.9993 50.3369C19.3493 50.2769 19.6493 50.0369 19.7793 49.6969L22.2593 43.0869C22.3993 42.7069 22.6993 42.4169 23.0893 42.2769C23.4893 42.1369 23.9193 42.1769 24.2793 42.3969C24.6393 42.6169 24.8693 42.9669 24.9293 43.3769L25.7593 49.4269C25.8693 50.2369 25.6793 51.0669 25.2193 51.7469L25.2093 51.7669Z" fill="black"/>
</svg>
