<svg width="70" height="85" viewBox="0 0 70 85" fill="none" xmlns="http://www.w3.org/2000/svg">
<path d="M59.8735 37.9181C59.9038 24.8912 48.3281 13.5046 35.2816 13.7742C31.5863 13.7645 27.9367 14.592 24.607 16.1946C21.2772 17.7972 18.3538 20.1333 16.0561 23.0275C15.8857 23.2431 15.8078 23.5175 15.8394 23.7905C15.871 24.0635 16.0096 24.3129 16.2247 24.4839C16.4399 24.6549 16.714 24.7336 16.9871 24.7028C17.2602 24.6721 17.51 24.5343 17.6816 24.3196C19.786 21.6719 22.4626 19.5351 25.5108 18.0697C28.559 16.6043 31.8995 15.8483 35.2816 15.8584C47 15.6167 57.4938 25.6903 57.7686 37.3763C57.5289 37.345 55.1427 37.3346 55.1427 37.3346C54.8658 32.2495 52.6522 27.4635 48.9565 23.9597C45.2609 20.4558 40.3637 18.5003 35.2711 18.4946C30.8754 18.4746 26.6002 19.9314 23.1314 22.6315C22.9131 22.8001 22.7707 23.0485 22.7355 23.3221C22.7004 23.5957 22.7753 23.8721 22.9439 24.0904C23.1125 24.3087 23.3609 24.4511 23.6345 24.4863C23.9081 24.5215 24.1845 24.4465 24.4028 24.2779C27.5109 21.8658 31.3369 20.5636 35.2711 20.5786C39.8107 20.5832 44.1775 22.3193 47.4809 25.433C50.7843 28.5467 52.7754 32.8033 53.0482 37.3346H51.7665C51.4904 37.3354 51.2258 37.4454 51.0306 37.6407C50.8353 37.8359 50.7253 38.1005 50.7245 38.3766V57.227C50.724 57.364 50.7506 57.4997 50.8028 57.6263C50.855 57.753 50.9318 57.868 51.0286 57.9649C51.1255 58.0617 51.2405 58.1385 51.3672 58.1907C51.4938 58.2429 51.6295 58.2695 51.7665 58.269H55.4449V60.7594C55.4422 62.3588 54.8056 63.8918 53.6747 65.0227C52.5439 66.1535 51.0109 66.7901 49.4116 66.7928H43.2844C43.1159 66.1192 42.7269 65.5214 42.1792 65.0946C41.6316 64.6678 40.9568 64.4366 40.2625 64.4378H30.2902C29.4613 64.4385 28.6666 64.7681 28.0805 65.3542C27.4943 65.9403 27.1648 66.7351 27.1641 67.5639V68.1058C27.1666 68.9341 27.4967 69.7279 28.0824 70.3136C28.6682 70.8993 29.4619 71.2295 30.2902 71.2319H40.2625C40.956 71.23 41.6292 70.9976 42.1762 70.5713C42.7233 70.145 43.1131 69.5489 43.2844 68.8769H49.4116C51.5636 68.8743 53.6268 68.0182 55.1486 66.4965C56.6703 64.9747 57.5264 62.9115 57.5289 60.7594V58.2377C59.3694 58.1119 61.0935 57.292 62.3528 55.9438C63.612 54.5956 64.3125 52.8196 64.3126 50.9748V44.6288C64.3107 43.1985 63.8891 41.8003 63.1 40.6074C62.3109 39.4144 61.1891 38.4794 59.8735 37.9181ZM41.3045 68.1058C41.3037 68.3819 41.1936 68.6465 40.9984 68.8417C40.8031 69.037 40.5386 69.147 40.2625 69.1478H30.2902C30.0141 69.147 29.7495 69.037 29.5543 68.8417C29.359 68.6465 29.249 68.3819 29.2482 68.1058V67.5639C29.249 67.2878 29.359 67.0232 29.5543 66.828C29.7495 66.6327 30.0141 66.5227 30.2902 66.5219H40.2625C40.5386 66.5227 40.8032 66.6327 40.9984 66.828C41.1936 67.0232 41.3037 67.2878 41.3045 67.5639V68.1058ZM62.2285 50.9747C62.228 52.3564 61.6789 53.6813 60.7019 54.6583C59.7249 55.6353 58.4 56.1844 57.0183 56.1849H52.8086V39.4186H57.0183C58.3995 39.4209 59.7234 39.9705 60.7 40.9471C61.6766 41.9237 62.2262 43.2477 62.2285 44.6288V50.9747Z" fill="black"/>
<path d="M33.7393 57.4234L32.593 51.1712C34.7856 48.5079 36.0058 45.1773 36.0528 41.7279C36.0998 38.2784 34.9707 34.9159 32.8515 32.1938C30.7322 29.4718 27.7492 27.5526 24.3936 26.7522C21.038 25.9518 17.5099 26.318 14.3902 27.7905C11.2705 29.263 8.74524 31.754 7.23025 34.8533C5.71526 37.9525 5.30086 41.4753 6.05528 44.8416C6.8097 48.2078 8.68797 51.2168 11.3808 53.373C14.0736 55.5292 17.4205 56.7042 20.8702 56.7044C22.7792 56.7086 24.6715 56.3478 26.445 55.6415L32.2491 58.5384C32.422 58.6232 32.6149 58.6586 32.8066 58.6407C32.9983 58.6228 33.1813 58.5523 33.3355 58.4369C33.4896 58.3216 33.6089 58.1659 33.6802 57.987C33.7514 57.8082 33.7719 57.6131 33.7393 57.4234ZM26.966 53.5783C26.8261 53.5078 26.6727 53.4685 26.5161 53.4631C26.3596 53.4577 26.2038 53.4863 26.0594 53.547C24.4229 54.2611 22.6556 54.6267 20.8701 54.6203C17.8839 54.6151 14.9895 53.587 12.6691 51.7073C10.3486 49.8276 8.74215 47.2097 8.11718 44.2895C7.4922 41.3694 7.88645 38.3233 9.23427 35.6585C10.5821 32.9936 12.8021 30.871 15.5247 29.644C18.2472 28.4169 21.3079 28.1596 24.1971 28.9148C27.0863 29.6701 29.6296 31.3923 31.4034 33.7946C33.1773 36.197 34.0746 39.1345 33.9459 42.118C33.8173 45.1015 32.6705 47.9509 30.6965 50.1917C30.5924 50.3096 30.5167 50.4498 30.4752 50.6015C30.4336 50.7533 30.4273 50.9125 30.4568 51.067L31.3113 55.7456L26.966 53.5783Z" fill="black"/>
<path d="M32.4899 26.3516C32.3529 26.3499 32.2168 26.3752 32.0896 26.426C31.9623 26.4769 31.8464 26.5524 31.7483 26.6481C31.6503 26.7439 31.5721 26.858 31.5182 26.984C31.4644 27.11 31.4359 27.2454 31.4344 27.3825C31.4329 27.5195 31.4585 27.6555 31.5096 27.7826C31.5608 27.9097 31.6365 28.0256 31.7325 28.1234C31.8284 28.2212 31.9427 28.2992 32.0689 28.3528C32.195 28.4064 32.3304 28.4346 32.4675 28.4357C34.9747 28.4649 37.4209 29.2127 39.5159 30.5904C41.6109 31.9681 43.2667 33.9178 44.2869 36.2083C45.3071 38.4988 45.6488 41.0338 45.2714 43.5126C44.8941 45.9915 43.8136 48.3101 42.1582 50.1933C42.0541 50.3116 41.9783 50.4519 41.9363 50.6038C41.8944 50.7556 41.8874 50.915 41.916 51.0699L42.7779 55.7494L38.4144 53.5748C38.2749 53.5071 38.1223 53.4704 37.9672 53.4671C37.8122 53.4637 37.6582 53.4939 37.5159 53.5555C37.0767 53.7477 36.6269 53.9144 36.1685 54.0546C35.9055 54.1378 35.6861 54.3219 35.5586 54.5666C35.431 54.8113 35.4057 55.0965 35.4881 55.3598C35.5706 55.6231 35.754 55.843 35.9983 55.9713C36.2426 56.0995 36.5278 56.1257 36.7913 56.0441C37.1932 55.9184 37.5617 55.7881 37.9077 55.6507L43.7151 58.5453C43.8884 58.6317 44.0823 58.6681 44.2752 58.6505C44.468 58.6328 44.6521 58.5617 44.8068 58.4453C44.9615 58.3288 45.0807 58.1716 45.151 57.9912C45.2213 57.8108 45.24 57.6143 45.2049 57.4239L44.055 51.1784C45.8715 48.9658 47.0258 46.285 47.3847 43.4449C47.7437 40.6048 47.2928 37.7211 46.084 35.1261C44.8752 32.5312 42.9577 30.3307 40.5525 28.7782C38.1473 27.2258 35.3524 26.3846 32.4899 26.3516Z" fill="black"/>
<path d="M26.7994 37.293H13.4513C13.1755 37.2938 12.9113 37.404 12.7166 37.5993C12.5219 37.7947 12.4126 38.0592 12.4126 38.335C12.4126 38.6108 12.5219 38.8753 12.7166 39.0706C12.9113 39.266 13.1755 39.3761 13.4513 39.377H26.7994C27.0752 39.3761 27.3394 39.266 27.5341 39.0706C27.7288 38.8753 27.8381 38.6108 27.8381 38.335C27.8381 38.0592 27.7288 37.7947 27.5341 37.5993C27.3394 37.404 27.0752 37.2938 26.7994 37.293Z" fill="black"/>
<path d="M26.7993 41.4609H13.4512C13.1749 41.4609 12.9098 41.5707 12.7144 41.7661C12.519 41.9616 12.4092 42.2266 12.4092 42.503C12.4092 42.7794 12.519 43.0444 12.7144 43.2398C12.9098 43.4352 13.1749 43.545 13.4512 43.545H26.7993C27.0756 43.545 27.3407 43.4352 27.5361 43.2398C27.7315 43.0444 27.8413 42.7794 27.8413 42.503C27.8413 42.2266 27.7315 41.9616 27.5361 41.7661C27.3407 41.5707 27.0756 41.4609 26.7993 41.4609Z" fill="black"/>
<path d="M26.7993 45.6289H13.4512C13.1749 45.6289 12.9098 45.7387 12.7144 45.9341C12.519 46.1295 12.4092 46.3946 12.4092 46.671C12.4092 46.9473 12.519 47.2124 12.7144 47.4078C12.9098 47.6032 13.1749 47.713 13.4512 47.713H26.7993C27.0756 47.713 27.3407 47.6032 27.5361 47.4078C27.7315 47.2124 27.8413 46.9473 27.8413 46.671C27.8413 46.3946 27.7315 46.1295 27.5361 45.9341C27.3407 45.7387 27.0756 45.6289 26.7993 45.6289Z" fill="black"/>
</svg>
