<svg width="70" height="85" viewBox="0 0 70 85" fill="none" xmlns="http://www.w3.org/2000/svg">
<g clip-path="url(#clip0_169_137)">
<path d="M47.9939 47.6524C46.7458 44.5185 45.0364 40.2266 44.3689 36.9152C43.7152 33.6688 42.3595 30.9845 40.3392 28.9365C38.6926 27.2677 36.6011 26.0577 34.2568 25.4069L35.578 21.1727C35.6062 21.0825 35.6167 20.987 35.6089 20.8923C35.6011 20.7976 35.5752 20.7055 35.5326 20.6219C35.4901 20.5382 35.432 20.4646 35.3617 20.4057C35.2915 20.3468 35.2106 20.3038 35.1241 20.2793C34.5318 20.1116 33.9393 19.9434 33.3468 19.7747C32.7328 19.6001 32.1187 19.4257 31.5047 19.2515C31.4184 19.2271 31.3283 19.2216 31.2399 19.2354C31.1515 19.2493 31.0667 19.2822 30.9907 19.3321C30.9146 19.382 30.849 19.4479 30.7978 19.5257C30.7466 19.6035 30.7109 19.6916 30.6929 19.7845L29.709 24.8487C27.285 24.9014 24.8934 25.4511 22.6655 26.4674L20.9611 17.6893C20.9431 17.5963 20.9074 17.5082 20.8561 17.4304C20.8049 17.3525 20.7392 17.2867 20.6632 17.2368C20.5871 17.1869 20.5023 17.154 20.4139 17.1402C20.3255 17.1264 20.2353 17.1319 20.149 17.1565C19.2744 17.4049 18.4 17.6539 17.5258 17.9033C16.8883 18.0848 16.2514 18.2661 15.6151 18.4473C15.5288 18.4718 15.448 18.5149 15.3778 18.5738C15.3077 18.6327 15.2496 18.7062 15.2071 18.7898C15.1647 18.8735 15.1387 18.9654 15.1309 19.0601C15.1231 19.1547 15.1336 19.2501 15.1618 19.3403L18.2713 29.3092C15.3311 31.9203 13.5485 35.3256 13.1083 39.1866C12.5874 43.7597 13.9476 48.6801 17.153 53.8151V67.1732C17.153 67.3581 17.2222 67.5355 17.3452 67.6662C17.4683 67.797 17.6352 67.8705 17.8093 67.8705H35.8453C36.0193 67.8705 36.1862 67.797 36.3093 67.6662C36.4324 67.5355 36.5015 67.3581 36.5015 67.1732V60.0412H43.7746C43.9487 60.0412 44.1156 59.9677 44.2387 59.837C44.3618 59.7062 44.4309 59.5288 44.4309 59.3439V51.2434H48.4059C48.5122 51.2434 48.6169 51.216 48.7111 51.1635C48.8052 51.111 48.8859 51.035 48.9463 50.942C49.0066 50.8491 49.0448 50.7419 49.0576 50.6298C49.0704 50.5176 49.0573 50.4039 49.0195 50.2983C48.7811 49.6291 48.4162 48.7131 47.9939 47.6524ZM31.8381 20.7899C32.2279 20.9005 32.6177 21.0112 33.0075 21.1222C33.3762 21.227 33.7447 21.3317 34.1129 21.4364L32.7877 25.6832C32.7856 25.6899 32.7834 25.6965 32.7815 25.7031L30.6127 32.6538L29.5898 32.3622L31.8381 20.7899ZM17.8655 19.2505C18.5155 19.0653 19.1655 18.8802 19.8155 18.6952L22.6987 33.545L21.1159 33.9953L19.6712 29.3635C19.6648 29.3384 19.6571 29.3137 19.6481 29.2895L16.6268 19.6034L17.8655 19.2505ZM43.7748 49.8484C43.6008 49.8484 43.4339 49.9219 43.3108 50.0527C43.1877 50.1834 43.1186 50.3608 43.1186 50.5457V58.6461H35.8455C35.6714 58.6461 35.5045 58.7196 35.3814 58.8504C35.2583 58.9811 35.1892 59.1585 35.1892 59.3434V66.4754H18.4661V53.6037C18.466 53.4653 18.4272 53.3301 18.3546 53.2152C12.8385 44.4861 12.9999 36.1648 18.7181 30.7418L20.0645 35.0584C20.1172 35.2274 20.2286 35.3685 20.376 35.453C20.5234 35.5374 20.6956 35.5588 20.8574 35.5128L23.637 34.7223C23.7988 34.6763 23.938 34.5663 24.0259 34.4148C24.1139 34.2634 24.144 34.0819 24.1101 33.9076L22.9363 27.8619C24.9862 26.8893 27.1926 26.3435 29.436 26.254L28.179 32.7245C28.1451 32.8987 28.1752 33.0801 28.2631 33.2315C28.351 33.3829 28.49 33.4929 28.6517 33.539L30.8707 34.1715C31.0325 34.2176 31.2047 34.1963 31.3522 34.1118C31.4996 34.0274 31.6111 33.8862 31.6637 33.7173L33.8433 26.7322C36.9006 27.5608 41.6351 30.0051 43.0852 37.2072C43.779 40.6481 45.5162 45.0106 46.7849 48.1959C47.0263 48.8022 47.2487 49.3607 47.4378 49.8484H43.7748ZM57.0883 50.2607C57.0883 52.8487 56.1239 55.3656 54.3726 57.3477C54.2535 57.4826 54.0888 57.5616 53.9148 57.5675C53.7408 57.5733 53.5717 57.5055 53.4448 57.3789C53.3179 57.2523 53.2435 57.0773 53.238 56.8924C53.2325 56.7075 53.2964 56.5279 53.4155 56.3931C54.9374 54.6704 55.7755 52.4927 55.7755 50.2607C55.7755 48.0288 54.9374 45.851 53.4155 44.1284C53.2964 43.9935 53.2325 43.8139 53.238 43.6291C53.2436 43.4442 53.3179 43.2692 53.4449 43.1426C53.5718 43.0161 53.7408 42.9482 53.9148 42.9541C54.0888 42.9599 54.2535 43.039 54.3726 43.1738C56.1239 45.1559 57.0883 47.6728 57.0883 50.2607ZM60.9999 50.2607C60.9999 53.6981 59.7174 57.0431 57.3887 59.6798C57.2696 59.8147 57.1049 59.8937 56.931 59.8996C56.757 59.9055 56.5879 59.8376 56.461 59.7111C56.3341 59.5845 56.2596 59.4095 56.2541 59.2247C56.2486 59.0398 56.3124 58.8602 56.4316 58.7253C58.5309 56.3483 59.6874 53.3421 59.6874 50.2607C59.6874 47.1793 58.5312 44.1732 56.4318 41.7961C56.3729 41.7293 56.3268 41.6509 56.2964 41.5652C56.266 41.4795 56.2517 41.3883 56.2544 41.2968C56.2572 41.2053 56.2769 41.1152 56.3124 41.0318C56.3478 40.9483 56.3985 40.8731 56.4613 40.8104C56.5242 40.7478 56.598 40.6989 56.6787 40.6665C56.7593 40.6342 56.8451 40.6191 56.9313 40.622C57.0174 40.6249 57.1022 40.6458 57.1807 40.6835C57.2593 40.7212 57.33 40.775 57.389 40.8418C59.7174 43.4781 60.9999 46.8234 60.9999 50.2607ZM51.357 45.5064C52.5303 46.8372 53.1766 48.5256 53.1766 50.2607C53.1766 51.9958 52.5303 53.6843 51.357 55.0151C51.2379 55.1501 51.0733 55.2293 50.8993 55.2353C50.7253 55.2413 50.5562 55.1736 50.4292 55.0472C50.3022 54.9207 50.2276 54.7458 50.222 54.5609C50.2163 54.3761 50.28 54.1964 50.399 54.0614C51.3572 52.9747 51.8638 51.6608 51.8638 50.2607C51.8638 48.8606 51.3575 47.5469 50.399 46.46C50.3401 46.3932 50.2941 46.3147 50.2637 46.229C50.2334 46.1433 50.2192 46.0521 50.222 45.9605C50.2248 45.869 50.2445 45.7789 50.2801 45.6955C50.3156 45.6121 50.3663 45.5369 50.4292 45.4743C50.4921 45.4117 50.566 45.3628 50.6467 45.3306C50.7273 45.2983 50.8132 45.2832 50.8993 45.2862C50.9855 45.2892 51.0702 45.3101 51.1488 45.3479C51.2273 45.3857 51.298 45.4395 51.357 45.5064ZM22.4824 36.04C21.852 36.2191 21.3043 36.6355 20.9413 37.2117C20.5782 37.7878 20.4245 38.4844 20.5088 39.172C20.593 39.8595 20.9095 40.4912 21.3993 40.9493C21.8891 41.4075 22.5188 41.661 23.1714 41.6626C23.5548 41.6637 23.9341 41.5778 24.2837 41.4105C24.6333 41.2433 24.9453 40.9986 25.1987 40.6928C25.4521 40.3871 25.6411 40.0273 25.7531 39.6377C25.865 39.248 25.8973 38.8374 25.8478 38.4334C25.7983 38.0294 25.6681 37.6414 25.466 37.2951C25.2639 36.9489 24.9945 36.6526 24.6759 36.426C24.3572 36.1994 23.9967 36.0477 23.6184 35.9811C23.2401 35.9146 22.8528 35.9346 22.4824 36.04ZM24.3718 39.5345C24.2586 39.7435 24.0986 39.9197 23.906 40.0473C23.7134 40.1749 23.4941 40.25 23.2676 40.266C23.0411 40.282 22.8144 40.2384 22.6076 40.139C22.4008 40.0396 22.2203 39.8875 22.0821 39.6962C21.9438 39.5049 21.8522 39.2803 21.8152 39.0424C21.7782 38.8044 21.7971 38.5605 21.8702 38.3321C21.9432 38.1038 22.0682 37.8981 22.2339 37.7334C22.3997 37.5686 22.6012 37.4499 22.8205 37.3877L22.8224 37.3871C23.0857 37.3122 23.364 37.322 23.6221 37.4152C23.8803 37.5084 24.1066 37.6808 24.2724 37.9107C24.4383 38.1406 24.5362 38.4175 24.5539 38.7066C24.5716 38.9956 24.5082 39.2837 24.3718 39.5345ZM29.6449 34.3178C29.1356 34.173 28.5947 34.2204 28.1145 34.4519C27.6344 34.6833 27.2446 35.0845 27.0116 35.587C26.7786 36.0896 26.7168 36.6624 26.8367 37.2079C26.9566 37.7535 27.2509 38.238 27.6693 38.5789C28.0877 38.9197 28.6044 39.0959 29.1314 39.0774C29.6584 39.0589 30.163 38.8469 30.5594 38.4774C30.9557 38.1079 31.2192 37.6038 31.3049 37.0511C31.3907 36.4983 31.2934 35.931 31.0297 35.4459C30.8807 35.1698 30.6816 34.9279 30.4438 34.7342C30.2061 34.5405 29.9346 34.399 29.6449 34.3178ZM29.9895 36.9238C29.9227 37.1871 29.7606 37.4116 29.5385 37.5482C29.3164 37.6849 29.0524 37.7225 28.8043 37.6529C28.5583 37.5802 28.3493 37.4072 28.2227 37.1717C28.0961 36.9361 28.0623 36.6569 28.1285 36.3949C28.1946 36.1329 28.3555 35.9093 28.5761 35.7727C28.7967 35.6361 29.0591 35.5976 29.3063 35.6656C29.4289 35.7005 29.5439 35.7608 29.6446 35.8429C29.7453 35.9251 29.8297 36.0275 29.8932 36.1444C29.9566 36.2612 29.9978 36.3902 30.0143 36.5239C30.0308 36.6577 30.0224 36.7936 29.9895 36.9238Z" fill="black"/>
</g>
<defs>
<clipPath id="clip0_169_137">
<rect width="48" height="51" fill="white" transform="translate(13 17)"/>
</clipPath>
</defs>
</svg>
