<svg width="70" height="85" viewBox="0 0 70 85" fill="none" xmlns="http://www.w3.org/2000/svg">
<g clip-path="url(#clip0_169_72)">
<path d="M43.2834 46.6219C43.7748 46.303 44.1253 45.8133 44.2644 45.2512C44.4036 44.6891 44.3211 44.096 44.0336 43.5912L41.9067 39.8764C41.7614 39.6013 41.7273 39.2825 41.8111 38.9838C42.3706 36.8555 42.5026 34.6406 42.1996 32.4628C41.6545 28.8713 39.9825 25.5361 37.4164 22.922C34.8503 20.3078 31.5179 18.5449 27.8834 17.8786C27.6918 17.1395 27.2555 16.484 26.643 16.0152C26.0305 15.5464 25.2766 15.2909 24.5001 15.2891H22.1667C21.2603 15.2915 20.3903 15.6392 19.7397 16.259C19.089 16.8788 18.7086 17.7223 18.6784 18.612C15.2652 19.7813 12.3071 21.965 10.2144 24.86C8.12181 27.755 6.9984 31.2179 7.00005 34.7682C6.99293 37.6451 7.73812 40.4756 9.16422 42.9884C11.2214 46.473 11.934 50.568 11.1721 54.5258L9.37538 64.3571C9.34517 64.5221 9.35219 64.6916 9.39593 64.8536C9.43968 65.0156 9.51909 65.1662 9.62856 65.2948C9.73803 65.4234 9.8749 65.5269 10.0295 65.5979C10.1841 65.6689 10.3527 65.7057 10.5234 65.7057H24.5001C24.7851 65.7058 25.0603 65.6034 25.2737 65.4179C25.4872 65.2323 25.6241 64.9764 25.6586 64.6985L26.4986 57.9381C26.686 58.0054 26.8707 58.0684 27.0527 58.1272L30.1677 59.1321C30.9177 59.3888 31.7068 59.5179 32.5011 59.5137C34.0935 59.5003 35.6373 58.973 36.8946 58.0131C38.1519 57.0532 39.053 55.7139 39.4591 54.2016L41.0282 48.0794L43.2834 46.6219ZM23.3334 31.3307C24.7179 31.3307 26.0712 31.7339 27.2224 32.4894C28.3735 33.2448 29.2707 34.3185 29.8005 35.5748C30.3304 36.831 30.469 38.2134 30.1989 39.547C29.9288 40.8806 29.2621 42.1056 28.2831 43.0671C27.3042 44.0286 26.0569 44.6834 24.699 44.9486C23.3412 45.2139 21.9337 45.0778 20.6546 44.5574C19.3755 44.0371 18.2823 43.1559 17.5131 42.0253C16.7439 40.8947 16.3334 39.5655 16.3334 38.2057C16.3352 36.3829 17.0733 34.6353 18.3857 33.3464C19.698 32.0575 21.4774 31.3326 23.3334 31.3307ZM22.1667 17.5807H24.5001C24.8095 17.5807 25.1062 17.7015 25.325 17.9163C25.5438 18.1312 25.6667 18.4227 25.6667 18.7266V29.3404C24.1381 28.9386 22.5287 28.9386 21.0001 29.3404V18.7266C21.0001 18.4227 21.123 18.1312 21.3418 17.9163C21.5606 17.7015 21.8573 17.5807 22.1667 17.5807ZM39.3634 46.4156C39.1196 46.5732 38.9447 46.8148 38.8734 47.0928L37.1934 53.647C36.9229 54.6763 36.3102 55.5874 35.4526 56.2359C34.5949 56.8843 33.5414 57.233 32.4591 57.2266C31.93 57.2295 31.4047 57.1403 30.9074 56.963L27.7807 55.9547C27.1773 55.7574 26.5853 55.5279 26.0074 55.2672H25.9934C23.5407 54.213 21.3428 52.6612 19.5441 50.7137C19.4466 50.5899 19.3243 50.487 19.1849 50.4114C19.0454 50.3358 18.8916 50.289 18.733 50.274C18.5744 50.259 18.4143 50.2761 18.2627 50.3241C18.1111 50.3722 17.9711 50.4503 17.8514 50.5535C17.7316 50.6568 17.6347 50.783 17.5666 50.9244C17.4984 51.0659 17.4605 51.2195 17.4551 51.3759C17.4497 51.5323 17.477 51.6881 17.5353 51.8338C17.5936 51.9794 17.6817 52.1118 17.7941 52.2227C19.6183 54.2012 21.8166 55.8126 24.2667 56.9676L23.4676 63.4141H11.9176L13.4646 54.9544C14.3086 50.4708 13.5084 45.8385 11.2059 41.8793C9.97225 39.7054 9.32751 37.2569 9.33338 34.7682C9.33136 31.8327 10.2175 28.9628 11.8792 26.5229C13.541 24.0829 15.9035 22.1829 18.6667 21.0641V30.2789C16.8874 31.2878 15.4968 32.8452 14.7105 34.7095C13.9243 36.5738 13.7863 38.6408 14.3181 40.5899C14.8498 42.5391 16.0216 44.2614 17.6516 45.4898C19.2816 46.7182 21.2788 47.3841 23.3334 47.3841C25.388 47.3841 27.3851 46.7182 29.0152 45.4898C30.6452 44.2614 31.8169 42.5391 32.3487 40.5899C32.8805 38.6408 32.7425 36.5738 31.9563 34.7095C31.17 32.8452 29.7794 31.2878 28.0001 30.2789V20.2276C31.0394 20.8937 33.8019 22.4484 35.9239 24.6869C38.0458 26.9254 39.4276 29.7427 39.8872 32.7676C40.1492 34.6538 40.0351 36.572 39.5512 38.4154C39.3145 39.2861 39.4303 40.213 39.8744 41.0016L42.0001 44.7083L39.3634 46.4156Z" fill="black"/>
<path d="M57.1673 38.2109C55.6208 38.2128 54.1381 38.8169 53.0446 39.891C51.951 40.965 51.3358 42.4212 51.334 43.9401V49.6693C51.3357 50.9895 51.8008 52.2688 52.6508 53.2915C53.5009 54.3143 54.684 55.0179 56.0007 55.2839V63.4193C56.0007 63.7232 56.1236 64.0146 56.3424 64.2295C56.5612 64.4444 56.8579 64.5651 57.1673 64.5651C57.4767 64.5651 57.7735 64.4444 57.9923 64.2295C58.2111 64.0146 58.334 63.7232 58.334 63.4193V55.2839C59.6507 55.0179 60.8337 54.3143 61.6838 53.2915C62.5339 52.2688 62.999 50.9895 63.0007 49.6693V43.9401C62.9988 42.4212 62.3836 40.965 61.2901 39.891C60.1965 38.8169 58.7138 38.2128 57.1673 38.2109ZM60.6673 49.6693C60.6673 50.581 60.2986 51.4553 59.6422 52.0999C58.9858 52.7446 58.0956 53.1068 57.1673 53.1068C56.2391 53.1068 55.3488 52.7446 54.6924 52.0999C54.0361 51.4553 53.6673 50.581 53.6673 49.6693V43.9401C53.6673 43.0284 54.0361 42.1541 54.6924 41.5094C55.3488 40.8648 56.2391 40.5026 57.1673 40.5026C58.0956 40.5026 58.9858 40.8648 59.6422 41.5094C60.2986 42.1541 60.6673 43.0284 60.6673 43.9401V49.6693Z" fill="black"/>
<path d="M23.334 41.6484C24.0262 41.6484 24.7029 41.4468 25.2785 41.0691C25.8541 40.6914 26.3027 40.1545 26.5676 39.5264C26.8325 38.8983 26.9018 38.2071 26.7667 37.5403C26.6317 36.8735 26.2983 36.261 25.8089 35.7803C25.3194 35.2995 24.6957 34.9721 24.0168 34.8395C23.3379 34.7069 22.6341 34.7749 21.9946 35.0351C21.3551 35.2953 20.8084 35.7359 20.4238 36.3012C20.0393 36.8665 19.834 37.5311 19.834 38.2109C19.834 39.1226 20.2027 39.997 20.8591 40.6416C21.5155 41.2863 22.4057 41.6484 23.334 41.6484ZM23.334 37.0651C23.5647 37.0651 23.7903 37.1323 23.9821 37.2582C24.174 37.3841 24.3235 37.5631 24.4118 37.7724C24.5001 37.9818 24.5232 38.2122 24.4782 38.4345C24.4332 38.6568 24.3221 38.8609 24.1589 39.0212C23.9958 39.1814 23.7879 39.2905 23.5616 39.3348C23.3353 39.379 23.1007 39.3563 22.8875 39.2696C22.6743 39.1828 22.4921 39.036 22.3639 38.8475C22.2357 38.6591 22.1673 38.4376 22.1673 38.2109C22.1673 37.907 22.2902 37.6156 22.509 37.4007C22.7278 37.1858 23.0246 37.0651 23.334 37.0651Z" fill="black"/>
<path d="M48.7112 53.7746L44.7632 52.4087C44.4713 52.3078 44.1505 52.325 43.8714 52.4564C43.5924 52.5878 43.3779 52.8227 43.2751 53.1094C43.1724 53.3961 43.1899 53.7112 43.3237 53.9853C43.4575 54.2594 43.6966 54.47 43.9886 54.5709L47.9366 55.9356C48.0609 55.9789 48.1919 56.001 48.3239 56.0009C48.5991 56.0007 48.8653 55.905 49.0756 55.7306C49.2859 55.5562 49.4266 55.3145 49.473 55.0481C49.5193 54.7817 49.4683 54.5077 49.3289 54.2747C49.1895 54.0417 48.9707 53.8645 48.7112 53.7746Z" fill="black"/>
<path d="M42.8386 56.2276C42.7323 56.1187 42.6051 56.0316 42.4644 55.9711C42.3237 55.9106 42.1723 55.878 42.0187 55.8752C41.8652 55.8724 41.7126 55.8993 41.5697 55.9545C41.4267 56.0098 41.2963 56.0921 41.1859 56.197C41.0755 56.3018 40.9872 56.427 40.9262 56.5654C40.8651 56.7038 40.8325 56.8527 40.8302 57.0035C40.8279 57.1543 40.8559 57.3041 40.9127 57.4443C40.9694 57.5844 41.0538 57.7122 41.1609 57.8203L44.0706 60.7811C44.286 60.9983 44.5802 61.1228 44.8888 61.1274C45.1974 61.1319 45.4953 61.0162 45.7173 60.8055C45.9392 60.5948 46.0671 60.3064 46.0729 60.0033C46.0787 59.7002 45.962 59.4072 45.7483 59.1884L42.8386 56.2276Z" fill="black"/>
<path d="M48.7868 47.6184L44.6347 48.1317C44.3407 48.1684 44.072 48.3136 43.8831 48.5379C43.6942 48.7621 43.5992 49.0485 43.6175 49.339C43.6357 49.6295 43.7658 49.9022 43.9814 50.1019C44.197 50.3016 44.4818 50.4133 44.7782 50.4142C44.8277 50.4144 44.8771 50.4117 44.9263 50.4062L49.0785 49.8928C49.3856 49.8549 49.6648 49.6986 49.8546 49.4585C50.0444 49.2183 50.1293 48.914 50.0906 48.6124C50.0519 48.3108 49.8928 48.0366 49.6483 47.8502C49.4038 47.6638 49.0939 47.5804 48.7868 47.6184Z" fill="black"/>
</g>
<defs>
<clipPath id="clip0_169_72">
<rect width="56" height="55" fill="white" transform="translate(7 13)"/>
</clipPath>
</defs>
</svg>
